<svg xmlns="http://www.w3.org/2000/svg" width="51" height="39" fill="none" viewBox="0 0 51 39"><rect width="51" height="38.25" y=".375" fill="#27279E" rx="9.563"/><mask id="mask0" width="51" height="39" x="0" y="0" mask-type="alpha" maskUnits="userSpaceOnUse"><rect width="51" height="38.25" y=".375" fill="#F5F7FF" rx="9.563"/></mask><g mask="url(#mask0)"><path fill="#3434FF" d="M14.6907 17.9613L-4.06296 4.23094C-4.18747 4.13978 -4.3048 4.03919 -4.41392 3.93008L-6.5573 1.7867C-7.66629 0.677701 -6.88086 -1.21851 -5.3125 -1.21851L55.3726 -4.21003C59.9076 -4.43358 62.0303 1.31771 58.4375 4.09399L36.6743 18.4858C32.6047 21.177 30.5698 22.5226 28.3778 22.9974C26.522 23.3994 24.5972 23.3535 22.7626 22.8635C20.5958 22.2847 18.6275 20.8436 14.6907 17.9613L14.6907 17.9613Z"/></g></svg>