<svg width="131" height="96" viewBox="0 0 131 96" fill="none" xmlns="http://www.w3.org/2000/svg">
<path d="M131 95.0063V38.6995H118.08C119.561 31.9103 123.477 25.9008 129.098 21.8037L131 20.4174V0.000164783L125.398 1.23175C109.014 4.82133 95.2755 15.5096 87.6969 30.1031C85.2801 34.751 84.0408 39.9187 83.7433 45.1484L80.9424 95.0063H131Z" fill="#F5F7FF"/>
<path d="M50.0518 95.0063V38.6995H37.1315C38.6125 31.9103 42.5289 25.9008 48.1494 21.8037L50.0518 20.4174V0.000164783L44.4499 1.23175C28.0656 4.82133 14.3273 15.5096 6.74864 30.1031C4.33189 34.751 3.09253 39.9187 2.79509 45.1484L0.000342021 95.0063H50.0518Z" fill="#F5F7FF"/>
</svg>
