<svg width="25" height="24" viewBox="0 0 25 24" fill="none" xmlns="http://www.w3.org/2000/svg">
<path d="M24.5112 1.53224C24.5112 1.12586 24.3498 0.736131 24.0624 0.448781C23.7751 0.161432 23.3854 0 22.979 0H1.52768C1.14107 0.00114927 0.769183 0.148407 0.486588 0.412246C0.203993 0.676085 0.031583 1.037 0.00392767 1.42263C-0.0237277 1.80825 0.0954162 2.19007 0.33747 2.49154C0.579524 2.793 0.926592 2.99182 1.30908 3.04813C1.36991 3.05698 1.4255 3.08747 1.46565 3.134C1.50581 3.18054 1.52783 3.23999 1.52768 3.30146V18.157C1.5275 18.2158 1.50711 18.2728 1.46991 18.3184C1.43271 18.3639 1.38098 18.3953 1.32339 18.4073C1.07513 18.4577 0.854465 18.5985 0.704222 18.8025C0.553979 19.0064 0.48488 19.2589 0.510338 19.511C0.535796 19.763 0.653996 19.9966 0.841991 20.1664C1.02999 20.3362 1.27436 20.4301 1.52768 20.4298H11.2318C11.2654 20.4297 11.2987 20.4362 11.3297 20.449C11.3608 20.4618 11.389 20.4806 11.4127 20.5043C11.4365 20.528 11.4553 20.5563 11.4681 20.5873C11.4808 20.6183 11.4874 20.6516 11.4872 20.6852V21.0059C11.4865 21.0462 11.4762 21.0857 11.4572 21.1212C11.4382 21.1568 11.411 21.1873 11.3779 21.2102C11.1102 21.3966 10.9089 21.6636 10.8034 21.9723C10.6979 22.281 10.6937 22.6153 10.7914 22.9265C10.8891 23.2378 11.0835 23.5097 11.3465 23.7028C11.6094 23.8959 11.9271 24 12.2533 24C12.5796 24 12.8973 23.8959 13.1602 23.7028C13.4232 23.5097 13.6176 23.2378 13.7153 22.9265C13.813 22.6153 13.8087 22.281 13.7032 21.9723C13.5977 21.6636 13.3965 21.3966 13.1288 21.2102C13.0957 21.1873 13.0685 21.1568 13.0495 21.1212C13.0305 21.0857 13.0202 21.0462 13.0195 21.0059V20.6852C13.0193 20.6516 13.0258 20.6183 13.0386 20.5873C13.0514 20.5563 13.0702 20.528 13.0939 20.5043C13.1177 20.4806 13.1459 20.4618 13.1769 20.449C13.208 20.4362 13.2413 20.4297 13.2748 20.4298H22.979C23.2323 20.4301 23.4767 20.3362 23.6647 20.1664C23.8527 19.9966 23.9709 19.763 23.9963 19.511C24.0218 19.2589 23.9527 19.0064 23.8024 18.8025C23.6522 18.5985 23.4315 18.4577 23.1833 18.4073C23.1255 18.3957 23.0736 18.3644 23.0363 18.3187C22.999 18.2731 22.9788 18.2159 22.979 18.157V3.30146C22.979 3.24005 23.0011 3.18071 23.0413 3.13422C23.0814 3.08773 23.1369 3.05718 23.1976 3.04813C23.5622 2.99557 23.8957 2.81341 24.1369 2.53501C24.3782 2.25662 24.5111 1.90062 24.5112 1.53224V1.53224ZM20.936 18.1315C20.936 18.1992 20.9091 18.2641 20.8612 18.312C20.8133 18.3599 20.7484 18.3868 20.6806 18.3868H3.82604C3.75831 18.3868 3.69335 18.3599 3.64546 18.312C3.59757 18.2641 3.57066 18.1992 3.57066 18.1315V3.31984C3.57053 3.28627 3.57704 3.253 3.58983 3.22196C3.60261 3.19091 3.62142 3.16271 3.64516 3.13897C3.6689 3.11523 3.69711 3.09642 3.72815 3.08364C3.7592 3.07085 3.79246 3.06434 3.82604 3.06447H20.6806C20.7142 3.06434 20.7475 3.07085 20.7785 3.08364C20.8096 3.09642 20.8378 3.11523 20.8615 3.13897C20.8853 3.16271 20.9041 3.19091 20.9168 3.22196C20.9296 3.253 20.9361 3.28627 20.936 3.31984V18.1315Z" fill="#3434FF"/>
<rect x="3.10547" y="2.19678" width="18.3004" height="16.3672" fill="#3434FF"/>
<path d="M17.2298 12.6433C17.2627 12.6596 17.2986 12.6687 17.3353 12.67C17.372 12.6713 17.4085 12.6647 17.4424 12.6507C17.4762 12.6366 17.5067 12.6155 17.5317 12.5886C17.5568 12.5618 17.5757 12.5299 17.5874 12.4951C17.8712 11.6353 17.9436 10.7197 17.7983 9.82601C17.653 8.93227 17.2944 8.08675 16.7528 7.36112C16.7308 7.33169 16.7027 7.30734 16.6704 7.28972C16.6382 7.27209 16.6025 7.26161 16.5659 7.25897C16.5294 7.2563 16.4928 7.26159 16.4586 7.27447C16.4244 7.28734 16.3934 7.3075 16.3677 7.33354L13.3655 10.3347C13.337 10.3633 13.3157 10.3983 13.3033 10.4367C13.2909 10.4752 13.2878 10.5161 13.2943 10.5559C13.3008 10.5958 13.3167 10.6336 13.3406 10.6662C13.3645 10.6987 13.3958 10.7252 13.4319 10.7433L17.2298 12.6433Z" fill="white"/>
<path d="M7.2263 12.5132C7.19078 12.5221 7.15761 12.5386 7.12905 12.5615C7.10049 12.5844 7.07722 12.6132 7.06082 12.646C7.04416 12.6785 7.0348 12.7143 7.03339 12.7508C7.03198 12.7873 7.03855 12.8237 7.05265 12.8574C7.43539 13.7931 8.0635 14.6081 8.87076 15.2167C9.67802 15.8252 10.6345 16.2046 11.6394 16.315C12.6443 16.4253 13.6603 16.2625 14.5804 15.8436C15.5005 15.4247 16.2905 14.7654 16.8671 13.9351C16.888 13.905 16.9022 13.8709 16.9087 13.8349C16.9152 13.7989 16.9139 13.7619 16.9049 13.7265C16.8959 13.691 16.8794 13.6579 16.8565 13.6294C16.8336 13.6009 16.8048 13.5776 16.7721 13.5612L12.2776 11.3139C12.2233 11.2862 12.1608 11.2793 12.1019 11.2945L7.2263 12.5132Z" fill="white"/>
<path d="M15.6428 6.61096C15.6688 6.58514 15.6889 6.55404 15.7018 6.51977C15.7147 6.4855 15.72 6.44886 15.7175 6.41234C15.715 6.37582 15.7046 6.34026 15.6872 6.30809C15.6697 6.27591 15.6455 6.24787 15.6163 6.22585C14.7423 5.57212 13.6969 5.18708 12.6077 5.11778C11.5186 5.04849 10.4328 5.29793 9.48303 5.83564C8.53329 6.37334 7.76073 7.17603 7.25974 8.14564C6.75874 9.11524 6.551 10.2098 6.66189 11.2955C6.66562 11.332 6.67715 11.3673 6.69572 11.3989C6.71429 11.4305 6.73946 11.4578 6.7695 11.4788C6.79955 11.4998 6.83377 11.5142 6.86985 11.5208C6.90592 11.5274 6.943 11.5262 6.97856 11.5172L11.9215 10.2812C11.9664 10.2699 12.0074 10.2465 12.04 10.2138L15.6428 6.61096Z" fill="white"/>
</svg>
