<svg width="35" height="33" viewBox="0 0 35 33" fill="none" xmlns="http://www.w3.org/2000/svg">
<path d="M0.8125 4.19666C0.8125 3.1192 1.18962 2.23031 1.94381 1.53C2.69801 0.82965 3.6785 0.479492 4.88523 0.479492C6.07042 0.479492 7.02932 0.824252 7.762 1.51384C8.51619 2.22495 8.89331 3.15152 8.89331 4.29363C8.89331 5.32798 8.52699 6.18991 7.79432 6.87949C7.04012 7.5906 6.04886 7.94616 4.82058 7.94616H4.78826C3.60306 7.94616 2.64416 7.5906 1.91149 6.87949C1.17882 6.16838 0.8125 5.27409 0.8125 4.19666ZM1.2327 32.4795V10.8876H8.40846V32.4795H1.2327ZM12.3842 32.4795H19.56V20.4229C19.56 19.6687 19.6462 19.0869 19.8186 18.6775C20.1202 17.9448 20.5782 17.3253 21.1923 16.8189C21.8064 16.3125 22.5768 16.0593 23.5034 16.0593C25.9169 16.0593 27.1236 17.6862 27.1236 20.9401V32.4795H34.2994V20.0997C34.2994 16.9105 33.5452 14.4916 32.0367 12.8431C30.5283 11.1946 28.5351 10.3704 26.0569 10.3704C23.2771 10.3704 21.1115 11.5664 19.56 13.9583V14.0229H19.5277L19.56 13.9583V10.8876H12.3842C12.4273 11.5771 12.4489 13.7212 12.4489 17.3199C12.4489 20.9185 12.4273 25.9717 12.3842 32.4795Z" fill="white"/>
</svg>
