<svg width="27" height="26" viewBox="0 0 27 26" fill="none" xmlns="http://www.w3.org/2000/svg">
<path d="M16.2494 20.2002C15.9718 20.6861 15.5706 21.09 15.0866 21.371C14.6025 21.6519 14.0528 21.7999 13.4932 21.7999C12.9335 21.7999 12.3838 21.6519 11.8997 21.371C11.4157 21.09 11.0145 20.6861 10.7369 20.2002H1.49316V21.8002C1.49316 22.6489 1.83031 23.4628 2.43042 24.0629C3.03054 24.6631 3.84447 25.0002 4.69316 25.0002H22.2932C23.1419 25.0002 23.9558 24.6631 24.5559 24.0629C25.156 23.4628 25.4932 22.6489 25.4932 21.8002V20.2002H16.2494Z" stroke="#3434FF" stroke-width="2" stroke-linecap="round" stroke-linejoin="round"/>
<path d="M23.8936 20.1999V15.2612" stroke="#3434FF" stroke-width="2" stroke-linecap="round" stroke-linejoin="round"/>
<path d="M3.09277 20.1999V10.5999C3.09277 9.75121 3.42992 8.93728 4.03003 8.33716C4.63015 7.73704 5.44408 7.3999 6.29277 7.3999H15.8928" stroke="#3434FF" stroke-width="2" stroke-linecap="round" stroke-linejoin="round"/>
<path d="M23.0936 1H18.2936C16.9681 1 15.8936 2.07452 15.8936 3.4V13C15.8936 14.3255 16.9681 15.4 18.2936 15.4H23.0936C24.419 15.4 25.4936 14.3255 25.4936 13V3.4C25.4936 2.07452 24.419 1 23.0936 1Z" stroke="#3434FF" stroke-width="2" stroke-linecap="round" stroke-linejoin="round"/>
<path d="M25.4936 12.2002H15.8936" stroke="#3434FF" stroke-width="2" stroke-linecap="round" stroke-linejoin="round"/>
<path d="M25.4936 4.2002H15.8936" stroke="#3434FF" stroke-width="2" stroke-linecap="round" stroke-linejoin="round"/>
</svg>
