<svg width="22" height="26" viewBox="0 0 22 26" fill="none" xmlns="http://www.w3.org/2000/svg">
<path d="M21.4469 4.4915L17.431 0.475587C17.2803 0.324426 17.1011 0.204583 16.9038 0.122962C16.7066 0.0413398 16.4951 -0.000448424 16.2816 3.62874e-06H1.88086C1.44988 3.62874e-06 1.03656 0.171208 0.731811 0.475955C0.427064 0.780702 0.255859 1.19403 0.255859 1.625V24.375C0.255859 24.806 0.427064 25.2193 0.731811 25.524C1.03656 25.8288 1.44988 26 1.88086 26H20.2975C20.7285 26 21.1418 25.8288 21.4466 25.524C21.7513 25.2193 21.9225 24.806 21.9225 24.375V5.64092C21.923 5.42743 21.8812 5.21597 21.7996 5.0187C21.7179 4.82143 21.5981 4.64226 21.4469 4.4915V4.4915ZM8.38086 23.8333C8.16659 23.8333 7.95714 23.7698 7.77899 23.6508C7.60084 23.5317 7.46198 23.3625 7.37999 23.1646C7.29799 22.9666 7.27654 22.7488 7.31834 22.5387C7.36014 22.3285 7.46332 22.1355 7.61483 21.984C7.76633 21.8325 7.95936 21.7293 8.16951 21.6875C8.37966 21.6457 8.59748 21.6671 8.79543 21.7491C8.99339 21.8311 9.16258 21.97 9.28162 22.1481C9.40065 22.3263 9.46419 22.5357 9.46419 22.75C9.46419 23.0373 9.35005 23.3129 9.14689 23.516C8.94373 23.7192 8.66818 23.8333 8.38086 23.8333ZM8.38086 20.0417C8.16659 20.0417 7.95714 19.9781 7.77899 19.8591C7.60084 19.7401 7.46198 19.5709 7.37999 19.3729C7.29799 19.175 7.27654 18.9571 7.31834 18.747C7.36014 18.5368 7.46332 18.3438 7.61483 18.1923C7.76633 18.0408 7.95936 17.9376 8.16951 17.8958C8.37966 17.854 8.59748 17.8755 8.79543 17.9575C8.99339 18.0395 9.16258 18.1783 9.28162 18.3565C9.40065 18.5346 9.46419 18.7441 9.46419 18.9583C9.46419 19.2457 9.35005 19.5212 9.14689 19.7244C8.94373 19.9275 8.66818 20.0417 8.38086 20.0417ZM8.38627 16.25C8.17201 16.25 7.96256 16.1865 7.78441 16.0674C7.60625 15.9484 7.4674 15.7792 7.38541 15.5812C7.30341 15.3833 7.28196 15.1655 7.32376 14.9553C7.36556 14.7452 7.46874 14.5521 7.62024 14.4006C7.77175 14.2491 7.96478 14.146 8.17493 14.1042C8.38507 14.0624 8.6029 14.0838 8.80085 14.1658C8.9988 14.2478 9.168 14.3866 9.28703 14.5648C9.40607 14.743 9.46961 14.9524 9.46961 15.1667C9.46961 15.454 9.35547 15.7295 9.15231 15.9327C8.94914 16.1359 8.67359 16.25 8.38627 16.25ZM8.38627 12.4583C8.17201 12.4583 7.96256 12.3948 7.78441 12.2758C7.60625 12.1567 7.4674 11.9875 7.38541 11.7896C7.30341 11.5916 7.28196 11.3738 7.32376 11.1637C7.36556 10.9535 7.46874 10.7605 7.62024 10.609C7.77175 10.4575 7.96478 10.3543 8.17493 10.3125C8.38507 10.2707 8.6029 10.2921 8.80085 10.3741C8.9988 10.4561 9.168 10.595 9.28703 10.7731C9.40607 10.9513 9.46961 11.1607 9.46961 11.375C9.46961 11.6623 9.35547 11.9379 9.15231 12.141C8.94914 12.3442 8.67359 12.4583 8.38627 12.4583ZM10.0113 7.15C9.81138 7.37792 9.56515 7.56056 9.28903 7.68573C9.01291 7.8109 8.71327 7.87571 8.41011 7.87584C8.10198 7.88387 7.79575 7.82523 7.51238 7.70393C7.22902 7.58263 6.9752 7.40154 6.76832 7.17305C6.56143 6.94456 6.40636 6.67407 6.31371 6.38009C6.22106 6.0861 6.19303 5.77557 6.23152 5.46975L6.76236 2.08217C6.78249 1.95471 6.84746 1.83863 6.94557 1.75482C7.04368 1.67101 7.16849 1.62497 7.29752 1.625H9.46419C9.5945 1.62345 9.721 1.66893 9.82049 1.7531C9.91999 1.83727 9.9858 1.95449 10.0059 2.08325L10.5324 5.4535V5.47084C10.5691 5.77141 10.5419 6.07634 10.4527 6.36569C10.3634 6.65505 10.2141 6.92231 10.0145 7.15H10.0113Z" fill="#3434FF"/>
</svg>
