<svg width="50" height="50" viewBox="0 0 50 50" fill="none" xmlns="http://www.w3.org/2000/svg">
<path d="M39.0625 20.3125H10.9375C9.21161 20.3125 7.8125 21.7116 7.8125 23.4375V45.3125C7.8125 47.0384 9.21161 48.4375 10.9375 48.4375H39.0625C40.7884 48.4375 42.1875 47.0384 42.1875 45.3125V23.4375C42.1875 21.7116 40.7884 20.3125 39.0625 20.3125Z" stroke="white" stroke-width="3.125" stroke-linecap="round" stroke-linejoin="round"/>
<path d="M14.0625 20.3125V12.5C14.0625 9.59919 15.2148 6.8172 17.266 4.76602C19.3172 2.71484 22.0992 1.5625 25 1.5625C27.9008 1.5625 30.6828 2.71484 32.734 4.76602C34.7852 6.8172 35.9375 9.59919 35.9375 12.5V20.3125" stroke="white" stroke-width="3.125" stroke-linecap="round" stroke-linejoin="round"/>
<path d="M25 32.8125C24.8455 32.8125 24.6944 32.8583 24.566 32.9442C24.4375 33.03 24.3374 33.152 24.2782 33.2948C24.2191 33.4375 24.2036 33.5946 24.2338 33.7462C24.2639 33.8977 24.3383 34.0369 24.4476 34.1462C24.5568 34.2554 24.696 34.3298 24.8476 34.36C24.9991 34.3901 25.1562 34.3747 25.299 34.3155C25.4417 34.2564 25.5637 34.1563 25.6496 34.0278C25.7354 33.8993 25.7812 33.7483 25.7812 33.5938C25.7815 33.4911 25.7615 33.3894 25.7223 33.2945C25.6832 33.1995 25.6256 33.1133 25.553 33.0407C25.4804 32.9681 25.3942 32.9106 25.2993 32.8714C25.2044 32.8322 25.1027 32.8122 25 32.8125" stroke="white" stroke-width="3.125" stroke-linecap="round" stroke-linejoin="round"/>
</svg>
