<svg width="40" height="33" viewBox="0 0 40 33" fill="none" xmlns="http://www.w3.org/2000/svg">
<path d="M26.1329 0.486595V0.479492H27.9667L28.6368 0.614453C29.0835 0.702072 29.4891 0.816895 29.8535 0.958959C30.218 1.10102 30.5706 1.26678 30.9115 1.45618C31.2525 1.64559 31.5617 1.83859 31.8391 2.0351C32.1142 2.22926 32.361 2.43526 32.5797 2.65308C32.796 2.87328 33.1334 2.9301 33.5918 2.82355C34.0503 2.71701 34.544 2.56901 35.073 2.3796C35.6021 2.1902 36.1252 1.9771 36.6424 1.74031C37.1597 1.50353 37.4748 1.35319 37.5876 1.28926C37.6981 1.22299 37.7569 1.18747 37.764 1.18271L37.771 1.17206L37.8062 1.1543L37.8415 1.13654L37.8768 1.11878L37.912 1.10102L37.9191 1.09037L37.9297 1.08327L37.9403 1.07616L37.9473 1.06551L37.9826 1.05485L38.0178 1.04775L38.0108 1.10102L38.0002 1.1543L37.9826 1.20757L37.9649 1.26085L37.9473 1.29636L37.9297 1.33188L37.912 1.38515C37.9003 1.42067 37.8886 1.46801 37.8768 1.52722C37.865 1.58642 37.7533 1.82317 37.5417 2.23754C37.3301 2.65191 37.0656 3.07217 36.7482 3.49836C36.4308 3.92455 36.1464 4.24654 35.8948 4.4644C35.6409 4.6846 35.4728 4.83849 35.3904 4.92611C35.3082 5.01607 35.2083 5.09893 35.0907 5.17472L34.9143 5.29192L34.8791 5.30968L34.8438 5.32744L34.8368 5.33809L34.8262 5.3452L34.8156 5.3523L34.8085 5.36296L34.7733 5.38071L34.738 5.39847L34.731 5.40913L34.7204 5.41623L34.7098 5.42333L34.7027 5.43399L34.6957 5.44464L34.6851 5.45175L34.6745 5.45885L34.6675 5.4695H34.8438L35.8313 5.25641C36.4896 5.11434 37.1185 4.94269 37.7181 4.74142L38.6703 4.42178L38.7761 4.38626L38.829 4.3685L38.8642 4.35075L38.8995 4.33299L38.9348 4.31523L38.9701 4.29747L39.0406 4.28682L39.1111 4.27971V4.35075L39.0935 4.35785L39.0759 4.3685L39.0688 4.37916L39.0582 4.38626L39.0476 4.39337L39.0406 4.40402L39.0336 4.41468L39.023 4.42178L39.0124 4.42888L39.0053 4.43954L38.9983 4.45019L38.9877 4.45729L38.9701 4.49281L38.9524 4.52833L38.9418 4.53543C38.9371 4.54253 38.7879 4.74377 38.4939 5.1392C38.2001 5.53698 38.0414 5.73822 38.0178 5.74298C37.9944 5.75008 37.9614 5.7856 37.9191 5.84953C37.8791 5.9158 37.6299 6.17983 37.1714 6.64153C36.713 7.10324 36.2639 7.51402 35.8243 7.87394C35.3823 8.23621 35.1589 8.68133 35.1542 9.20935C35.1471 9.73499 35.1201 10.3293 35.073 10.9923C35.026 11.6552 34.9379 12.3715 34.8085 13.141C34.6793 13.9105 34.4794 14.7807 34.209 15.7514C33.9386 16.7222 33.6095 17.6693 33.2215 18.5927C32.8336 19.5161 32.428 20.3448 32.0048 21.0788C31.5816 21.8128 31.1937 22.4344 30.841 22.9434C30.4883 23.4525 30.1298 23.9319 29.7654 24.3818C29.4009 24.8317 28.9401 25.3384 28.3829 25.9019C27.8233 26.4631 27.5177 26.7709 27.466 26.8253C27.4119 26.8774 27.1815 27.0716 26.7747 27.4078C26.3703 27.7464 25.9354 28.0849 25.4698 28.4236C25.0067 28.7598 24.5811 29.0404 24.1932 29.2653C23.8052 29.4902 23.3374 29.7471 22.7895 30.036C22.2441 30.3272 21.6539 30.5971 21.0191 30.8458C20.3843 31.0944 19.7143 31.3252 19.0089 31.5383C18.3036 31.7514 17.6218 31.9172 16.9634 32.0355C16.3051 32.1539 15.5586 32.2546 14.724 32.3374L13.472 32.4617V32.4795H11.1796V32.4617L10.8799 32.444C10.6801 32.4322 10.5155 32.4203 10.3861 32.4085C10.2568 32.3966 9.76896 32.3315 8.92255 32.2131C8.07615 32.0947 7.41196 31.9763 6.92997 31.858C6.44801 31.7396 5.73089 31.5146 4.77868 31.1832C3.82647 30.8517 3.0118 30.5166 2.33468 30.1781C1.65991 29.8418 1.23671 29.6287 1.06506 29.5388C0.895782 29.4511 0.70534 29.3423 0.493738 29.212L0.176335 29.0167L0.169317 29.006L0.158702 28.9989L0.148121 28.9918L0.141068 28.9812L0.105801 28.9634L0.070534 28.9456L0.0635159 28.935L0.0529005 28.9279L0.0423204 28.9208L0.035267 28.9101L0.0282489 28.8995L0.0176335 28.8924H0V28.8213L0.035267 28.8284L0.070534 28.8391L0.229236 28.8569C0.335037 28.8687 0.623062 28.8864 1.09328 28.9101C1.56353 28.9338 2.06312 28.9338 2.59213 28.9101C3.12113 28.8864 3.66192 28.8332 4.21441 28.7503C4.76694 28.6674 5.41938 28.5254 6.17173 28.3241C6.92411 28.1228 7.61535 27.8837 8.24546 27.6067C8.87322 27.3273 9.31991 27.1189 9.58561 26.9816C9.84891 26.8466 10.251 26.5956 10.7917 26.2287L11.6028 25.6782L11.6099 25.6675L11.6205 25.6604L11.6311 25.6533L11.6381 25.6426L11.6452 25.632L11.6557 25.6249L11.6664 25.6178L11.6734 25.6071L11.7086 25.5965L11.7439 25.5894L11.751 25.5539L11.7615 25.5183L11.7722 25.5112L11.7792 25.5006L11.497 25.4828C11.309 25.471 11.1267 25.4591 10.9504 25.4473C10.7741 25.4355 10.4978 25.3822 10.1216 25.2875C9.74548 25.1928 9.3399 25.0507 8.90492 24.8613C8.46997 24.6719 8.04677 24.4469 7.63531 24.1865C7.22388 23.926 6.92644 23.7094 6.74305 23.5365C6.56203 23.366 6.3269 23.1246 6.03771 22.812C5.75089 22.4971 5.50165 22.1739 5.29005 21.8424C5.07845 21.511 4.87626 21.1285 4.68349 20.6953L4.39074 20.0489L4.37311 19.9956L4.35548 19.9423L4.3449 19.9068L4.33784 19.8713L4.39074 19.8784L4.44364 19.889L4.83158 19.9423C5.09023 19.9778 5.4958 19.9897 6.04829 19.9778C6.60082 19.966 6.98287 19.9423 7.19447 19.9068C7.40607 19.8713 7.5354 19.8476 7.58241 19.8358L7.65294 19.818L7.74111 19.8002L7.82928 19.7825L7.83633 19.7718L7.84691 19.7647L7.85753 19.7576L7.86454 19.747L7.79401 19.7292L7.72348 19.7115L7.65294 19.6937L7.58241 19.6759L7.51187 19.6582C7.46486 19.6464 7.38259 19.6227 7.265 19.5872C7.14746 19.5516 6.83006 19.4214 6.3128 19.1965C5.79557 18.9716 5.38411 18.7525 5.07845 18.5394C4.77203 18.3257 4.47987 18.092 4.20383 17.8398C3.92875 17.584 3.62665 17.2549 3.29747 16.8524C2.96832 16.4499 2.67444 15.9823 2.41579 15.4495C2.15718 14.9168 1.96321 14.4077 1.83388 13.9223C1.70508 13.4398 1.6201 12.9465 1.58 12.4484L1.51648 11.7026L1.55175 11.7097L1.58702 11.7203L1.62228 11.7381L1.65755 11.7559L1.69282 11.7736L1.72808 11.7914L2.27472 12.04C2.63917 12.2057 3.09175 12.3478 3.6325 12.4662C4.17329 12.5845 4.49654 12.6497 4.60235 12.6615L4.76105 12.6793H5.07845L5.07143 12.6686L5.06082 12.6615L5.05024 12.6544L5.04318 12.6438L5.03616 12.6331L5.02555 12.626L5.01497 12.6189L5.00792 12.6082L4.97265 12.5905L4.93738 12.5727L4.93036 12.5621L4.91975 12.555L4.90917 12.5479L4.90211 12.5372L4.86685 12.5194L4.83158 12.5017L4.82456 12.491C4.81751 12.4863 4.7164 12.4105 4.52123 12.2637C4.32843 12.1146 4.12624 11.9216 3.91464 11.6848C3.70304 11.448 3.49143 11.1994 3.27983 10.939C3.06784 10.6779 2.87902 10.3987 2.71556 10.1044C2.551 9.8084 2.377 9.43189 2.19361 8.97494C2.01258 8.52034 1.87504 8.06218 1.78098 7.60047C1.68696 7.13876 1.63406 6.68298 1.62228 6.2331C1.61054 5.78322 1.62228 5.39847 1.65755 5.07883C1.69282 4.75918 1.76335 4.39809 1.86915 3.99559C1.97495 3.59308 2.1278 3.16689 2.32762 2.71701L2.62739 2.0422L2.64503 1.98893L2.66266 1.93565L2.67328 1.92855L2.68029 1.91789L2.68735 1.90724L2.69793 1.90014L2.70854 1.90724L2.71556 1.91789L2.72261 1.92855L2.73319 1.93565L2.74381 1.94276L2.75083 1.95341L2.75788 1.96406L2.76846 1.97117L2.78609 2.00668L2.80373 2.0422L2.81434 2.0493L2.82136 2.05996L3.29747 2.5927C3.61487 2.94786 3.99106 3.34447 4.42601 3.78249C4.86099 4.22051 5.10197 4.44781 5.14898 4.4644C5.19603 4.48333 5.25479 4.53777 5.32532 4.62777C5.39585 4.71539 5.63098 4.92494 6.03066 5.25641C6.43038 5.58788 6.95349 5.97266 7.60004 6.41068C8.24663 6.8487 8.96371 7.28082 9.75133 7.70702C10.539 8.13321 11.3854 8.51796 12.2906 8.86129C13.1958 9.20462 13.8306 9.42955 14.195 9.5361C14.5594 9.64264 15.1824 9.77878 16.0641 9.94453C16.9458 10.1103 17.61 10.2168 18.0567 10.2642C18.5034 10.3115 18.8091 10.3388 18.9737 10.3459L19.2205 10.353L19.2135 10.2997L19.2029 10.2464L19.1324 9.80247C19.0853 9.50651 19.0618 9.09215 19.0618 8.5594C19.0618 8.02666 19.103 7.53537 19.1853 7.08549C19.2676 6.6356 19.391 6.17983 19.5556 5.71812C19.7202 5.25641 19.8812 4.88583 20.0387 4.60646C20.1986 4.32944 20.4079 4.01334 20.6665 3.65818C20.9251 3.30302 21.2602 2.93603 21.6716 2.55718C22.083 2.17833 22.5533 1.84093 23.0823 1.54498C23.6113 1.24902 24.0991 1.02406 24.5458 0.870169C24.9926 0.716278 25.3688 0.615625 25.6744 0.568282C25.98 0.520939 26.1329 0.493699 26.1329 0.486595V0.486595Z" fill="white"/>
</svg>
