<svg width="39" height="39" viewBox="0 0 39 39" fill="none" xmlns="http://www.w3.org/2000/svg">
<path fill-rule="evenodd" clip-rule="evenodd" d="M33.16 6.00173C29.6039 2.44257 24.8744 0.481493 19.8357 0.479492C9.45364 0.479492 1.00389 8.92601 0.999732 19.3082C0.998347 22.6269 1.86573 25.8664 3.51397 28.7218L0.841797 38.4795L10.827 35.8611C13.5782 37.3611 16.6757 38.1517 19.8282 38.153H19.836C30.217 38.153 38.6675 29.7054 38.6717 19.3232C38.6737 14.2919 36.7163 9.56088 33.16 6.00173V6.00173ZM19.836 34.9727H19.8295C17.0204 34.9716 14.265 34.2172 11.8613 32.7912L11.2896 32.452L5.36431 34.0059L6.94591 28.2305L6.57362 27.6385C5.00648 25.1466 4.17874 22.2665 4.17998 19.3094C4.18341 10.6801 11.2066 3.65973 19.8422 3.65973C24.0237 3.66133 27.9546 5.2914 30.9104 8.24965C33.8662 11.2079 35.4931 15.1401 35.4915 19.322C35.4879 27.9518 28.4649 34.9727 19.836 34.9727V34.9727ZM28.4234 23.2513C27.9527 23.0158 25.6388 21.8775 25.2074 21.7205C24.776 21.5635 24.4623 21.485 24.1485 21.956C23.8348 22.427 22.9328 23.4868 22.6582 23.8008C22.3837 24.1148 22.1092 24.1541 21.6385 23.9185C21.1679 23.6831 19.6514 23.1863 17.8537 21.5833C16.4546 20.3359 15.51 18.795 15.2355 18.324C14.9609 17.853 15.2063 17.5983 15.4419 17.3638C15.6536 17.1529 15.9125 16.8142 16.1478 16.5395C16.3831 16.2647 16.4616 16.0685 16.6184 15.7545C16.7753 15.4405 16.6969 15.1657 16.5792 14.9302C16.4616 14.6947 15.5204 12.3789 15.1281 11.4369C14.7461 10.5194 14.3581 10.6435 14.0692 10.6292C13.795 10.6155 13.4809 10.6126 13.1672 10.6126C12.8534 10.6126 12.3436 10.7304 11.9121 11.2014C11.4807 11.6724 10.265 12.8107 10.265 15.1265C10.265 17.4422 11.9514 19.6795 12.1867 19.9935C12.422 20.3075 15.5054 25.0599 20.2266 27.0979C21.3495 27.5826 22.2262 27.8721 22.9097 28.089C24.0372 28.447 25.0631 28.3965 25.8741 28.2754C26.7783 28.1403 28.6586 27.1372 29.0509 26.0381C29.4431 24.9391 29.4431 23.9971 29.3254 23.8008C29.2078 23.6046 28.894 23.4868 28.4234 23.2513" fill="white"/>
</svg>
