<svg width="87" height="84" viewBox="0 0 87 84" fill="none" xmlns="http://www.w3.org/2000/svg">
<circle cx="42" cy="42" r="42" fill="#F6F6FF"/>
<mask id="path-2-inside-1" fill="white">
<path fill-rule="evenodd" clip-rule="evenodd" d="M18.5738 39.5966C11.3486 41.5733 6.08057 47.7169 6.08057 54.9879C6.08057 56.8933 13.9144 61.6626 23.5801 61.6626C33.2458 61.6626 41.0815 57.453 41.0815 54.9879C41.0815 47.7162 35.814 41.5722 28.5882 39.5961V39.3354C31.5816 37.4043 33.5952 33.7946 33.5952 29.6596C33.5952 23.4898 29.1105 18.4897 23.5808 18.4897C18.0493 18.4897 13.5665 23.4898 13.5665 29.6596C13.5665 33.7944 15.5807 37.4039 18.5738 39.3351V39.5966Z"/>
</mask>
<path fill-rule="evenodd" clip-rule="evenodd" d="M18.5738 39.5966C11.3486 41.5733 6.08057 47.7169 6.08057 54.9879C6.08057 56.8933 13.9144 61.6626 23.5801 61.6626C33.2458 61.6626 41.0815 57.453 41.0815 54.9879C41.0815 47.7162 35.814 41.5722 28.5882 39.5961V39.3354C31.5816 37.4043 33.5952 33.7946 33.5952 29.6596C33.5952 23.4898 29.1105 18.4897 23.5808 18.4897C18.0493 18.4897 13.5665 23.4898 13.5665 29.6596C13.5665 33.7944 15.5807 37.4039 18.5738 39.3351V39.5966Z" fill="white"/>
<path d="M18.5738 39.5966L19.1016 41.5257L20.5738 41.1229V39.5966H18.5738ZM28.5882 39.5961H26.5882V41.1226L28.0606 41.5252L28.5882 39.5961ZM28.5882 39.3354L27.504 37.6548L26.5882 38.2456V39.3354H28.5882ZM18.5738 39.3351H20.5738V38.2453L19.6582 37.6545L18.5738 39.3351ZM18.0461 37.6675C10.0767 39.8477 4.08057 46.692 4.08057 54.9879H8.08057C8.08057 48.7417 12.6204 43.2988 19.1016 41.5257L18.0461 37.6675ZM4.08057 54.9879C4.08057 55.8629 4.50093 56.5721 4.8324 57.0169C5.19829 57.5079 5.6768 57.9689 6.19905 58.3906C7.25035 59.2397 8.68852 60.0973 10.3823 60.8624C13.7776 62.3962 18.4319 63.6626 23.5801 63.6626V59.6626C19.0625 59.6626 14.9671 58.5444 12.029 57.2171C10.5562 56.5518 9.43178 55.8598 8.71219 55.2787C8.349 54.9854 8.13998 54.7612 8.0397 54.6267C7.90501 54.4459 8.08057 54.5894 8.08057 54.9879H4.08057ZM23.5801 63.6626C28.6874 63.6626 33.3311 62.5538 36.7448 61.0873C38.4452 60.3568 39.9111 59.5075 40.9899 58.6044C41.5288 58.1533 42.0211 57.6474 42.392 57.089C42.7561 56.5408 43.0815 55.8218 43.0815 54.9879H39.0815C39.0815 54.7703 39.1621 54.7221 39.0599 54.876C38.9645 55.0196 38.7691 55.247 38.4224 55.5372C37.73 56.1168 36.6328 56.782 35.166 57.4121C32.2454 58.6667 28.1384 59.6626 23.5801 59.6626V63.6626ZM43.0815 54.9879C43.0815 46.6915 37.086 39.8467 29.1158 37.6669L28.0606 41.5252C34.5419 43.2978 39.0815 48.7409 39.0815 54.9879H43.0815ZM26.5882 39.3354V39.5961H30.5882V39.3354H26.5882ZM29.6724 41.016C33.2689 38.6958 35.5952 34.4347 35.5952 29.6596H31.5952C31.5952 33.1545 29.8942 36.1128 27.504 37.6548L29.6724 41.016ZM35.5952 29.6596C35.5952 22.596 30.4147 16.4897 23.5808 16.4897V20.4897C27.8064 20.4897 31.5952 24.3836 31.5952 29.6596H35.5952ZM23.5808 16.4897C16.745 16.4897 11.5665 22.5962 11.5665 29.6596H15.5665C15.5665 24.3834 19.3537 20.4897 23.5808 20.4897V16.4897ZM11.5665 29.6596C11.5665 34.4348 13.8936 38.6955 17.4895 41.0156L19.6582 37.6545C17.2679 36.1123 15.5665 33.154 15.5665 29.6596H11.5665ZM20.5738 39.5966V39.3351H16.5738V39.5966H20.5738Z" fill="#202058" mask="url(#path-2-inside-1)"/>
<mask id="path-4-inside-2" fill="white">
<path fill-rule="evenodd" clip-rule="evenodd" d="M55.5018 39.512C48.3054 41.4808 43.0585 47.5997 43.0585 54.8417C43.0585 56.7395 50.8609 61.4897 60.488 61.4897C70.115 61.4897 77.9194 57.2969 77.9194 54.8417C77.9194 47.5991 72.6729 41.4797 65.476 39.5115V39.252C68.4574 37.3286 70.463 33.7334 70.463 29.6149C70.463 23.4698 65.9963 18.4897 60.4887 18.4897C54.9793 18.4897 50.5144 23.4698 50.5144 29.6149C50.5144 33.7332 52.5206 37.3282 55.5018 39.2517V39.512Z"/>
</mask>
<path fill-rule="evenodd" clip-rule="evenodd" d="M55.5018 39.512C48.3054 41.4808 43.0585 47.5997 43.0585 54.8417C43.0585 56.7395 50.8609 61.4897 60.488 61.4897C70.115 61.4897 77.9194 57.2969 77.9194 54.8417C77.9194 47.5991 72.6729 41.4797 65.476 39.5115V39.252C68.4574 37.3286 70.463 33.7334 70.463 29.6149C70.463 23.4698 65.9963 18.4897 60.4887 18.4897C54.9793 18.4897 50.5144 23.4698 50.5144 29.6149C50.5144 33.7332 52.5206 37.3282 55.5018 39.2517V39.512Z" fill="white"/>
<path d="M55.5018 39.512L56.0295 41.4411L57.5018 41.0383V39.512H55.5018ZM65.476 39.5115H63.476V41.0379L64.9484 41.4406L65.476 39.5115ZM65.476 39.252L64.3918 37.5714L63.476 38.1622V39.252H65.476ZM55.5018 39.2517H57.5018V38.1619L56.5861 37.5711L55.5018 39.2517ZM54.974 37.5829C47.0335 39.7552 41.0585 46.5748 41.0585 54.8417H45.0585C45.0585 48.6246 49.5773 43.2063 56.0295 41.4411L54.974 37.5829ZM41.0585 54.8417C41.0585 55.7157 41.4783 56.4238 41.8089 56.8674C42.1738 57.3571 42.651 57.8167 43.1715 58.2371C44.2192 59.0832 45.6523 59.9377 47.3397 60.7C50.7223 62.2281 55.3592 63.4897 60.488 63.4897V59.4897C55.9897 59.4897 51.9118 58.3762 48.9864 57.0547C47.5199 56.3922 46.4006 55.7034 45.6846 55.1251C45.3232 54.8332 45.1155 54.6104 45.0162 54.4771C44.8824 54.2976 45.0585 54.4422 45.0585 54.8417H41.0585ZM60.488 63.4897C65.576 63.4897 70.2022 62.3851 73.6032 60.924C75.2973 60.1963 76.758 59.35 77.8333 58.4499C78.3705 58.0003 78.8613 57.4958 79.2313 56.9388C79.5945 56.392 79.9194 55.6744 79.9194 54.8417H75.9194C75.9194 54.6229 76.0005 54.5734 75.8992 54.7258C75.8048 54.868 75.6107 55.0939 75.2658 55.3826C74.5769 55.9593 73.4848 56.6214 72.0244 57.2488C69.1165 58.498 65.027 59.4897 60.488 59.4897V63.4897ZM79.9194 54.8417C79.9194 46.5744 73.9449 39.7541 66.0036 37.5823L64.9484 41.4406C71.4009 43.2052 75.9194 48.6238 75.9194 54.8417H79.9194ZM63.476 39.252V39.5115H67.476V39.252H63.476ZM66.5602 40.9326C70.1448 38.6201 72.463 34.3735 72.463 29.6149H68.463C68.463 33.0933 66.7701 36.0371 64.3918 37.5714L66.5602 40.9326ZM72.463 29.6149C72.463 22.576 67.3004 16.4897 60.4887 16.4897V20.4897C64.6921 20.4897 68.463 24.3636 68.463 29.6149H72.463ZM60.4887 16.4897C53.675 16.4897 48.5144 22.5762 48.5144 29.6149H52.5144C52.5144 24.3634 56.2837 20.4897 60.4887 20.4897V16.4897ZM48.5144 29.6149C48.5144 34.3736 50.8335 38.6198 54.4174 40.9322L56.5861 37.5711C54.2078 36.0366 52.5144 33.0928 52.5144 29.6149H48.5144ZM57.5018 39.512V39.2517H53.5018V39.512H57.5018Z" fill="#202058" mask="url(#path-4-inside-2)"/>
<mask id="path-6-inside-3" fill="white">
<path fill-rule="evenodd" clip-rule="evenodd" d="M34.5666 39.8248C23.9591 42.7268 16.2251 51.7462 16.2251 62.4209C16.2251 65.2182 27.7259 72.2201 41.9162 72.2201C56.1065 72.2201 67.6103 66.0399 67.6103 62.4209C67.6103 51.7453 59.8769 42.7252 49.2687 39.824V39.4412C53.6635 36.6062 56.6198 31.3068 56.6198 25.2359C56.6198 16.178 50.0358 8.8374 41.9177 8.8374C33.7968 8.8374 27.2155 16.178 27.2155 25.2359C27.2155 31.3062 30.1725 36.6052 34.5666 39.4404V39.8248Z"/>
</mask>
<path fill-rule="evenodd" clip-rule="evenodd" d="M34.5666 39.8248C23.9591 42.7268 16.2251 51.7462 16.2251 62.4209C16.2251 65.2182 27.7259 72.2201 41.9162 72.2201C56.1065 72.2201 67.6103 66.0399 67.6103 62.4209C67.6103 51.7453 59.8769 42.7252 49.2687 39.824V39.4412C53.6635 36.6062 56.6198 31.3068 56.6198 25.2359C56.6198 16.178 50.0358 8.8374 41.9177 8.8374C33.7968 8.8374 27.2155 16.178 27.2155 25.2359C27.2155 31.3062 30.1725 36.6052 34.5666 39.4404V39.8248Z" fill="white"/>
<path d="M34.5666 39.8248L35.0944 41.7539L36.5666 41.3511V39.8248H34.5666ZM49.2687 39.824H47.2687V41.3505L48.7411 41.7532L49.2687 39.824ZM49.2687 39.4412L48.1845 37.7606L47.2687 38.3514V39.4412H49.2687ZM34.5666 39.4404H36.5666V38.3507L35.6509 37.7599L34.5666 39.4404ZM34.0388 37.8957C22.6872 41.0012 14.2251 50.7213 14.2251 62.4209H18.2251C18.2251 52.7711 25.231 44.4523 35.0944 41.7539L34.0388 37.8957ZM14.2251 62.4209C14.2251 63.4073 14.7028 64.249 15.1433 64.8402C15.6183 65.4776 16.2578 66.099 16.9873 66.6881C18.453 67.8719 20.491 69.0922 22.9259 70.1922C27.8035 72.3956 34.5058 74.2201 41.9162 74.2201V70.2201C35.1364 70.2201 28.9931 68.5437 24.5727 66.5468C22.3586 65.5467 20.6345 64.492 19.5004 63.5762C18.93 63.1155 18.56 62.731 18.3506 62.45C18.1068 62.1229 18.2251 62.1339 18.2251 62.4209H14.2251ZM41.9162 74.2201C49.2859 74.2201 55.9777 72.6186 60.874 70.5153C63.3157 69.4664 65.3814 68.2625 66.8748 67.0125C67.6211 66.3878 68.2743 65.7103 68.7543 64.9876C69.2275 64.275 69.6103 63.3991 69.6103 62.4209H65.6103C65.6103 62.3475 65.6336 62.4564 65.4223 62.7745C65.2177 63.0825 64.8613 63.4815 64.3074 63.9452C63.2004 64.8718 61.5033 65.8915 59.2952 66.84C54.8921 68.7315 48.7369 70.2201 41.9162 70.2201V74.2201ZM69.6103 62.4209C69.6103 50.7206 61.149 40.9997 49.7963 37.8949L48.7411 41.7532C58.6049 44.4508 65.6103 52.77 65.6103 62.4209H69.6103ZM47.2687 39.4412V39.824H51.2687V39.4412H47.2687ZM50.3529 41.1219C55.3508 37.8977 58.6198 31.9469 58.6198 25.2359H54.6198C54.6198 30.6666 51.9761 35.3146 48.1845 37.7606L50.3529 41.1219ZM58.6198 25.2359C58.6198 15.2842 51.34 6.8374 41.9177 6.8374V10.8374C48.7317 10.8374 54.6198 17.0719 54.6198 25.2359H58.6198ZM41.9177 6.8374C32.4924 6.8374 25.2155 15.2845 25.2155 25.2359H29.2155C29.2155 17.0716 35.1012 10.8374 41.9177 10.8374V6.8374ZM25.2155 25.2359C25.2155 31.9466 28.4854 37.8968 33.4822 41.121L35.6509 37.7599C31.8597 35.3136 29.2155 30.6658 29.2155 25.2359H25.2155ZM36.5666 39.8248V39.4404H32.5666V39.8248H36.5666Z" fill="#202058" mask="url(#path-6-inside-3)"/>
<g filter="url(#filter0_d)">
<path d="M74.5972 74.3279C75.1067 74.6232 75.6974 74.7477 76.2827 74.6832C76.8681 74.6187 77.4174 74.3685 77.8504 73.9693C78.2823 73.5876 78.5812 73.078 78.7036 72.5147C78.826 71.9513 78.7655 71.3637 78.5308 70.8371L75.8868 64.7628C75.842 64.6586 75.831 64.5429 75.8554 64.432C75.8799 64.3212 75.9384 64.2208 76.0229 64.145L80.8033 59.8874C81.1949 59.5118 81.4656 59.028 81.5811 58.4978C81.6965 57.9677 81.6513 57.4151 81.4514 56.9107C81.2467 56.4124 80.8959 55.9877 80.4451 55.6927C79.9943 55.3977 79.4647 55.2462 78.9262 55.2582H73.5258C73.4205 55.2583 73.3174 55.2274 73.2295 55.1694C73.1416 55.1114 73.0726 55.0289 73.0311 54.932L70.1279 48.201L70.0998 48.1406C69.8632 47.6771 69.5017 47.2889 69.0562 47.0199C68.6107 46.7508 68.0989 46.6116 67.5785 46.6179C67.0582 46.6242 66.5499 46.7757 66.111 47.0555C65.6722 47.3352 65.3202 47.732 65.0948 48.201L62.1851 54.9299C62.1433 55.0269 62.0739 55.1095 61.9856 55.1675C61.8973 55.2254 61.7939 55.2562 61.6883 55.2561H56.2879C55.7513 55.243 55.2234 55.3929 54.7738 55.686C54.3241 55.9791 53.9739 56.4016 53.7692 56.8978C53.5658 57.4126 53.5228 57.9768 53.6458 58.5165C53.7687 59.0562 54.052 59.5461 54.4583 59.922L59.1976 64.145C59.2827 64.2204 59.3416 64.3208 59.3661 64.4318C59.3905 64.5428 59.3792 64.6587 59.3337 64.7628L56.6919 70.8436C56.4571 71.3705 56.3965 71.9585 56.5188 72.5222C56.6412 73.0859 56.9402 73.5959 57.3723 73.978C57.8054 74.3769 58.3547 74.6268 58.94 74.6913C59.5253 74.7558 60.1159 74.6315 60.6255 74.3366L67.3457 70.552C67.4264 70.5064 67.5175 70.4824 67.6103 70.4824C67.703 70.4824 67.7942 70.5064 67.8749 70.552L74.5972 74.3279Z" fill="#3434FF"/>
</g>
<defs>
<filter id="filter0_d" x="48.5771" y="44.6177" width="38.0664" height="38.0903" filterUnits="userSpaceOnUse" color-interpolation-filters="sRGB">
<feFlood flood-opacity="0" result="BackgroundImageFix"/>
<feColorMatrix in="SourceAlpha" type="matrix" values="0 0 0 0 0 0 0 0 0 0 0 0 0 0 0 0 0 0 127 0"/>
<feOffset dy="3"/>
<feGaussianBlur stdDeviation="2.5"/>
<feColorMatrix type="matrix" values="0 0 0 0 0.203922 0 0 0 0 0.203922 0 0 0 0 1 0 0 0 0.25 0"/>
<feBlend mode="normal" in2="BackgroundImageFix" result="effect1_dropShadow"/>
<feBlend mode="normal" in="SourceGraphic" in2="effect1_dropShadow" result="shape"/>
</filter>
</defs>
</svg>
