<svg width="93" height="94" viewBox="0 0 93 94" fill="none" xmlns="http://www.w3.org/2000/svg">
<circle cx="39.9" cy="40.7799" r="39.9" fill="#F6F6FF"/>
<rect x="3.52002" y="11.1201" width="65.2" height="46.72" rx="11" fill="white" stroke="#202058" stroke-width="2"/>
<g filter="url(#filter0_d)">
<rect x="10.24" y="17.8398" width="65.2" height="50.08" rx="11" fill="white" stroke="#202058" stroke-width="2"/>
<rect x="27.72" y="25.2402" width="31.08" height="5.04" rx="2.52" fill="#B0B0D0"/>
<rect x="21.84" y="34.4795" width="42" height="3.36" rx="1.68" fill="#DFDFEB"/>
<rect x="31.92" y="41.2002" width="22.68" height="3.36" rx="1.68" fill="#DFDFEB"/>
<rect x="20.16" y="58" width="18.48" height="3.36" rx="1.68" fill="#C4C4D2"/>
<rect x="47.04" y="58" width="18.48" height="3.36" rx="1.68" fill="#C4C4D2"/>
<g filter="url(#filter1_d)">
<path d="M77.723 72.9147C76.9609 73.7711 76.0261 74.4565 74.9801 74.9258C73.9341 75.3952 72.8007 75.6378 71.6543 75.6378C70.5078 75.6378 69.3744 75.3952 68.3284 74.9258C67.2825 74.4565 66.3477 73.7711 65.5855 72.9147C65.1634 72.9402 64.74 72.9309 64.3195 72.8869C64.2588 72.8809 64.1975 72.8875 64.1395 72.9063C64.0816 72.9252 64.0281 72.9558 63.9826 72.9963C63.9376 73.0373 63.9017 73.0872 63.8772 73.1428C63.8527 73.1984 63.84 73.2586 63.8401 73.3194V83.4511C63.8401 83.7611 63.9231 84.0654 64.0805 84.3325C64.2378 84.5996 64.4638 84.8197 64.7349 84.97C65.0061 85.1203 65.3125 85.1953 65.6224 85.1871C65.9323 85.179 66.2344 85.088 66.4972 84.9237L71.6551 81.7005L76.813 84.9255C77.076 85.0899 77.3783 85.1808 77.6883 85.1889C77.9983 85.1969 78.3049 85.1218 78.5761 84.9713C78.8473 84.8208 79.0732 84.6005 79.2305 84.3331C79.3877 84.0658 79.4704 83.7612 79.4701 83.4511V73.3246C79.4699 73.2639 79.4571 73.204 79.4324 73.1486C79.4077 73.0932 79.3717 73.0436 79.3268 73.0029C79.2818 72.9622 79.2289 72.9314 79.1713 72.9123C79.1138 72.8932 79.0529 72.8863 78.9925 72.8921C78.5708 72.9353 78.1461 72.9428 77.723 72.9147Z" fill="#3434FF"/>
<circle cx="71.8782" cy="59.0183" r="7.59204" fill="white"/>
<path d="M83.4504 53.3844C83.7543 52.4232 83.7885 51.3971 83.5493 50.4179C83.3101 49.4387 82.8065 48.544 82.0937 47.8313C81.3808 47.1186 80.4859 46.6153 79.5067 46.3763C78.5274 46.1373 77.5013 46.1717 76.5402 46.4759C76.0756 45.5815 75.3743 44.8319 74.5129 44.3087C73.6514 43.7855 72.6629 43.5088 71.655 43.5088C70.6471 43.5088 69.6586 43.7855 68.7972 44.3087C67.9357 44.8319 67.2345 45.5815 66.7698 46.4759C65.8088 46.1715 64.7827 46.1369 63.8033 46.3759C62.824 46.6148 61.9292 47.1181 61.2164 47.8309C60.5036 48.5437 60.0002 49.4386 59.7613 50.4179C59.5223 51.3972 59.5569 52.4234 59.8613 53.3844C58.9669 53.8488 58.2172 54.5498 57.6939 55.4111C57.1706 56.2725 56.8939 57.2609 56.8939 58.2687C56.8939 59.2765 57.1706 60.265 57.6939 61.1263C58.2172 61.9876 58.9669 62.6887 59.8613 63.1531C59.557 64.1143 59.5225 65.1406 59.7615 66.1201C60.0006 67.0996 60.5041 67.9947 61.217 68.7076C61.9299 69.4205 62.825 69.924 63.8045 70.1631C64.784 70.4021 65.8103 70.3676 66.7715 70.0633C67.2358 70.9581 67.9369 71.7083 68.7984 72.2319C69.6599 72.7555 70.6486 73.0324 71.6568 73.0324C72.6649 73.0324 73.6536 72.7555 74.5151 72.2319C75.3766 71.7083 76.0777 70.9581 76.542 70.0633C77.503 70.3677 78.5291 70.4023 79.5084 70.1633C80.4877 69.9244 81.3826 69.421 82.0954 68.7082C82.8082 67.9954 83.3115 67.1006 83.5505 66.1213C83.7894 65.1419 83.7548 64.1158 83.4504 63.1548C84.3448 62.6902 85.0945 61.9889 85.6177 61.1274C86.1409 60.266 86.4175 59.2775 86.4175 58.2696C86.4175 57.2617 86.1409 56.2732 85.6177 55.4117C85.0945 54.5503 84.3448 53.849 83.4504 53.3844V53.3844ZM68.1365 63.8043C67.9923 63.8872 67.8258 63.9229 67.6603 63.9064C67.4948 63.8899 67.3387 63.822 67.2136 63.7123C67.0886 63.6026 67.0011 63.4566 66.9632 63.2946C66.9253 63.1327 66.9391 62.963 67.0025 62.8092L68.3554 59.7266C68.3904 59.6461 68.4002 59.5569 68.3834 59.4707C68.3667 59.3845 68.3242 59.3054 68.2616 59.2439L65.8302 56.8577C65.7156 56.7561 65.6351 56.6215 65.5999 56.4724C65.5647 56.3233 65.5764 56.1669 65.6334 56.0247C65.6904 55.8825 65.79 55.7614 65.9185 55.678C66.047 55.5946 66.1981 55.5529 66.3512 55.5587H69.1143C69.197 55.5588 69.278 55.5354 69.3479 55.4911C69.4177 55.4468 69.4734 55.3835 69.5085 55.3086L70.9604 52.1913C71.0279 52.0596 71.1304 51.9491 71.2566 51.872C71.3828 51.7949 71.5279 51.7541 71.6759 51.7541C71.8238 51.7541 71.9689 51.7949 72.0951 51.872C72.2214 51.9491 72.3239 52.0596 72.3914 52.1913L73.8311 55.3173C73.8658 55.392 73.9212 55.4553 73.9908 55.4996C74.0603 55.5439 74.1411 55.5674 74.2235 55.5673H76.9866C77.1397 55.5616 77.2908 55.6033 77.4193 55.6867C77.5478 55.7701 77.6474 55.8912 77.7044 56.0334C77.7615 56.1756 77.7732 56.332 77.7379 56.4811C77.7027 56.6302 77.6222 56.7647 77.5076 56.8664L75.0762 59.2525C75.0136 59.3141 74.9711 59.3932 74.9544 59.4794C74.9377 59.5656 74.9474 59.6548 74.9825 59.7353L76.3266 62.8196C76.3901 62.9734 76.4038 63.1431 76.3659 63.3051C76.3281 63.467 76.2405 63.6131 76.1155 63.7228C75.9905 63.8325 75.8343 63.9003 75.6688 63.9168C75.5033 63.9333 75.3368 63.8976 75.1926 63.8148L71.8738 61.9478C71.8086 61.9112 71.7351 61.8919 71.6602 61.8919C71.5854 61.8919 71.5118 61.9112 71.4466 61.9478L68.1365 63.8043Z" fill="#3434FF"/>
</g>
</g>
<defs>
<filter id="filter0_d" x="3.23999" y="12.8398" width="89.1776" height="80.3496" filterUnits="userSpaceOnUse" color-interpolation-filters="sRGB">
<feFlood flood-opacity="0" result="BackgroundImageFix"/>
<feColorMatrix in="SourceAlpha" type="matrix" values="0 0 0 0 0 0 0 0 0 0 0 0 0 0 0 0 0 0 127 0"/>
<feOffset dy="2"/>
<feGaussianBlur stdDeviation="3"/>
<feColorMatrix type="matrix" values="0 0 0 0 0.203922 0 0 0 0 0.203922 0 0 0 0 1 0 0 0 0.17 0"/>
<feBlend mode="normal" in2="BackgroundImageFix" result="effect1_dropShadow"/>
<feBlend mode="normal" in="SourceGraphic" in2="effect1_dropShadow" result="shape"/>
</filter>
<filter id="filter1_d" x="53.8939" y="41.5088" width="35.5237" height="47.6807" filterUnits="userSpaceOnUse" color-interpolation-filters="sRGB">
<feFlood flood-opacity="0" result="BackgroundImageFix"/>
<feColorMatrix in="SourceAlpha" type="matrix" values="0 0 0 0 0 0 0 0 0 0 0 0 0 0 0 0 0 0 127 0"/>
<feOffset dy="1"/>
<feGaussianBlur stdDeviation="1.5"/>
<feColorMatrix type="matrix" values="0 0 0 0 0.203922 0 0 0 0 0.203922 0 0 0 0 1 0 0 0 0.12 0"/>
<feBlend mode="normal" in2="BackgroundImageFix" result="effect1_dropShadow"/>
<feBlend mode="normal" in="SourceGraphic" in2="effect1_dropShadow" result="shape"/>
</filter>
</defs>
</svg>
