<svg xmlns="http://www.w3.org/2000/svg" width="95" height="95" fill="none" viewBox="0 0 95 95"><g clip-path="url(#clip0)"><circle cx="48" cy="41.385" r="37.245" fill="#F6F6FF"/><line x1="47.792" x2="47.792" y1="69.12" y2="58.818" stroke="#202058" stroke-width="2"/><line x1="22.142" x2="31.063" y1="55.972" y2="50.821" stroke="#202058" stroke-width="2"/><circle cx="48" cy="41.385" r="18.811" fill="#fff" stroke="#202058" stroke-width="2"/><g filter="url(#filter0_d)"><circle cx="16.302" cy="60.404" r="10.302" fill="#3434FF"/></g><circle cx="48.792" cy="79.422" r="11.679" fill="#fff" stroke="#202058" stroke-width="2"/><line x1="33.791" x2="25.074" y1="28.589" y2="19.079" stroke="#202058" stroke-width="2"/><line x1="78.819" x2="66.095" y1="50.615" y2="48.488" stroke="#202058" stroke-width="2"/><line x1="60.233" x2="69.743" y1="27.48" y2="18.763" stroke="#202058" stroke-width="2"/><g filter="url(#filter1_d)"><circle cx="72.566" cy="16.026" r="8.717" fill="#3434FF" transform="rotate(90 72.5662 16.0256)"/></g><circle cx="81.282" cy="51.687" r="7.717" fill="#fff" stroke="#202058" stroke-width="2"/><g filter="url(#filter2_d)"><path fill="#3434FF" d="M56.1962 48.9565C56.1962 50.111 52.5264 52.0825 47.9995 52.0825C43.4726 52.0825 39.8037 49.8488 39.8037 48.9565C39.8037 44.8033 43.4735 41.4355 48.0004 41.4355C52.5273 41.4355 56.1962 44.8033 56.1962 48.9565Z"/><path fill="#3434FF" d="M53.0427 35.7284C53.0427 38.5133 50.7857 40.7702 48.0008 40.7702C45.2168 40.7702 42.959 38.5133 42.959 35.7284C42.959 32.9435 45.2159 30.6865 48.0008 30.6865C50.7848 30.6865 53.0427 32.9435 53.0427 35.7284Z"/></g><circle cx="20.091" cy="13.079" r="9.079" fill="#fff" stroke="#202058" stroke-width="2"/></g><defs><filter id="filter0_d" width="36.604" height="36.604" x="-2" y="46.102" color-interpolation-filters="sRGB" filterUnits="userSpaceOnUse"><feFlood flood-opacity="0" result="BackgroundImageFix"/><feColorMatrix in="SourceAlpha" type="matrix" values="0 0 0 0 0 0 0 0 0 0 0 0 0 0 0 0 0 0 127 0"/><feOffset dy="4"/><feGaussianBlur stdDeviation="4"/><feColorMatrix type="matrix" values="0 0 0 0 0.203922 0 0 0 0 0.203922 0 0 0 0 1 0 0 0 0.31 0"/><feBlend in2="BackgroundImageFix" mode="normal" result="effect1_dropShadow"/><feBlend in="SourceGraphic" in2="effect1_dropShadow" mode="normal" result="shape"/></filter><filter id="filter1_d" width="33.434" height="33.434" x="55.85" y="3.309" color-interpolation-filters="sRGB" filterUnits="userSpaceOnUse"><feFlood flood-opacity="0" result="BackgroundImageFix"/><feColorMatrix in="SourceAlpha" type="matrix" values="0 0 0 0 0 0 0 0 0 0 0 0 0 0 0 0 0 0 127 0"/><feOffset dy="4"/><feGaussianBlur stdDeviation="4"/><feColorMatrix type="matrix" values="0 0 0 0 0.203922 0 0 0 0 0.203922 0 0 0 0 1 0 0 0 0.31 0"/><feBlend in2="BackgroundImageFix" mode="normal" result="effect1_dropShadow"/><feBlend in="SourceGraphic" in2="effect1_dropShadow" mode="normal" result="shape"/></filter><filter id="filter2_d" width="24.392" height="29.396" x="35.804" y="29.686" color-interpolation-filters="sRGB" filterUnits="userSpaceOnUse"><feFlood flood-opacity="0" result="BackgroundImageFix"/><feColorMatrix in="SourceAlpha" type="matrix" values="0 0 0 0 0 0 0 0 0 0 0 0 0 0 0 0 0 0 127 0"/><feOffset dy="3"/><feGaussianBlur stdDeviation="2"/><feColorMatrix type="matrix" values="0 0 0 0 0.203922 0 0 0 0 0.203922 0 0 0 0 1 0 0 0 0.26 0"/><feBlend in2="BackgroundImageFix" mode="normal" result="effect1_dropShadow"/><feBlend in="SourceGraphic" in2="effect1_dropShadow" mode="normal" result="shape"/></filter><clipPath id="clip0"><rect width="95" height="95" fill="#fff"/></clipPath></defs></svg>