<svg width="95" height="95" viewBox="0 0 95 95" fill="none" xmlns="http://www.w3.org/2000/svg">
<g clip-path="url(#clip0)">
<circle cx="48.0002" cy="41.385" r="37.2453" fill="#F6F6FF"/>
<line x1="47.792" y1="69.1201" x2="47.792" y2="58.8182" stroke="#202058" stroke-width="2"/>
<line x1="22.1416" y1="55.9719" x2="31.0633" y2="50.8209" stroke="#202058" stroke-width="2"/>
<circle cx="47.9998" cy="41.3846" r="18.8113" fill="white" stroke="#202058" stroke-width="2"/>
<g filter="url(#filter0_d)">
<circle cx="16.3019" cy="60.4035" r="10.3019" fill="#3434FF"/>
</g>
<circle cx="48.7925" cy="79.4224" r="11.6793" fill="white" stroke="#202058" stroke-width="2"/>
<line x1="33.7912" y1="28.5888" x2="25.0742" y2="19.0794" stroke="#202058" stroke-width="2"/>
<line x1="78.8185" y1="50.6152" x2="66.0949" y2="48.4883" stroke="#202058" stroke-width="2"/>
<line x1="60.2335" y1="27.4796" x2="69.7429" y2="18.7627" stroke="#202058" stroke-width="2"/>
<g filter="url(#filter1_d)">
<circle cx="72.5662" cy="16.0256" r="8.71699" transform="rotate(90 72.5662 16.0256)" fill="#3434FF"/>
</g>
<circle cx="81.2824" cy="51.6867" r="7.71699" fill="white" stroke="#202058" stroke-width="2"/>
<g filter="url(#filter2_d)">
<path d="M56.1962 48.9565C56.1962 50.111 52.5264 52.0825 47.9995 52.0825C43.4726 52.0825 39.8037 49.8488 39.8037 48.9565C39.8037 44.8033 43.4735 41.4355 48.0004 41.4355C52.5273 41.4355 56.1962 44.8033 56.1962 48.9565Z" fill="#3434FF"/>
<path d="M53.0427 35.7284C53.0427 38.5133 50.7857 40.7702 48.0008 40.7702C45.2168 40.7702 42.959 38.5133 42.959 35.7284C42.959 32.9435 45.2159 30.6865 48.0008 30.6865C50.7848 30.6865 53.0427 32.9435 53.0427 35.7284Z" fill="#3434FF"/>
</g>
<circle cx="20.0909" cy="13.0791" r="9.07914" fill="white" stroke="#202058" stroke-width="2"/>
</g>
<defs>
<filter id="filter0_d" x="-2" y="46.1016" width="36.6038" height="36.6038" filterUnits="userSpaceOnUse" color-interpolation-filters="sRGB">
<feFlood flood-opacity="0" result="BackgroundImageFix"/>
<feColorMatrix in="SourceAlpha" type="matrix" values="0 0 0 0 0 0 0 0 0 0 0 0 0 0 0 0 0 0 127 0"/>
<feOffset dy="4"/>
<feGaussianBlur stdDeviation="4"/>
<feColorMatrix type="matrix" values="0 0 0 0 0.203922 0 0 0 0 0.203922 0 0 0 0 1 0 0 0 0.31 0"/>
<feBlend mode="normal" in2="BackgroundImageFix" result="effect1_dropShadow"/>
<feBlend mode="normal" in="SourceGraphic" in2="effect1_dropShadow" result="shape"/>
</filter>
<filter id="filter1_d" x="55.8496" y="3.30859" width="33.434" height="33.434" filterUnits="userSpaceOnUse" color-interpolation-filters="sRGB">
<feFlood flood-opacity="0" result="BackgroundImageFix"/>
<feColorMatrix in="SourceAlpha" type="matrix" values="0 0 0 0 0 0 0 0 0 0 0 0 0 0 0 0 0 0 127 0"/>
<feOffset dy="4"/>
<feGaussianBlur stdDeviation="4"/>
<feColorMatrix type="matrix" values="0 0 0 0 0.203922 0 0 0 0 0.203922 0 0 0 0 1 0 0 0 0.31 0"/>
<feBlend mode="normal" in2="BackgroundImageFix" result="effect1_dropShadow"/>
<feBlend mode="normal" in="SourceGraphic" in2="effect1_dropShadow" result="shape"/>
</filter>
<filter id="filter2_d" x="35.8037" y="29.6865" width="24.3925" height="29.396" filterUnits="userSpaceOnUse" color-interpolation-filters="sRGB">
<feFlood flood-opacity="0" result="BackgroundImageFix"/>
<feColorMatrix in="SourceAlpha" type="matrix" values="0 0 0 0 0 0 0 0 0 0 0 0 0 0 0 0 0 0 127 0"/>
<feOffset dy="3"/>
<feGaussianBlur stdDeviation="2"/>
<feColorMatrix type="matrix" values="0 0 0 0 0.203922 0 0 0 0 0.203922 0 0 0 0 1 0 0 0 0.26 0"/>
<feBlend mode="normal" in2="BackgroundImageFix" result="effect1_dropShadow"/>
<feBlend mode="normal" in="SourceGraphic" in2="effect1_dropShadow" result="shape"/>
</filter>
<clipPath id="clip0">
<rect width="95" height="95" fill="white"/>
</clipPath>
</defs>
</svg>
