<svg width="37" height="37" viewBox="0 0 37 37" fill="none" xmlns="http://www.w3.org/2000/svg">
<path fill-rule="evenodd" clip-rule="evenodd" d="M13.7627 0.479492C11.7767 0.48096 10.1693 2.09271 10.1708 4.07877C10.1693 6.06482 11.7781 7.67657 13.7642 7.67804H17.3576V4.08023C17.3591 2.09417 15.7502 0.482428 13.7627 0.479492C13.7642 0.479492 13.7642 0.479492 13.7627 0.479492V0.479492ZM13.7627 10.0795H4.18325C2.19719 10.081 0.58838 11.6927 0.589848 13.6788C0.586912 15.6648 2.19572 17.2766 4.18178 17.2795H13.7627C15.7488 17.2781 17.3576 15.6663 17.3561 13.6803C17.3576 11.6927 15.7488 10.081 13.7627 10.0795V10.0795Z" fill="white"/>
<path fill-rule="evenodd" clip-rule="evenodd" d="M36.5221 13.6788C36.5236 11.6927 34.9148 10.081 32.9287 10.0795C30.9427 10.081 29.3339 11.6927 29.3353 13.6788V17.2795H32.9287C34.9148 17.2781 36.5236 15.6663 36.5221 13.6788ZM26.9412 13.6788V4.07877C26.9427 2.09417 25.3353 0.482428 23.3493 0.479492C21.3632 0.48096 19.7544 2.09271 19.7559 4.07877V13.6788C19.7529 15.6648 21.3617 17.2766 23.3478 17.2795C25.3339 17.2781 26.9427 15.6663 26.9412 13.6788Z" fill="white"/>
<path fill-rule="evenodd" clip-rule="evenodd" d="M23.3395 36.4792C25.3256 36.4778 26.9344 34.866 26.9329 32.88C26.9344 30.8939 25.3256 29.2822 23.3395 29.2807H19.7461V32.88C19.7446 34.8646 21.3534 36.4763 23.3395 36.4792ZM23.3395 26.8777H32.9204C34.9065 26.8763 36.5153 25.2645 36.5138 23.2785C36.5168 21.2924 34.908 19.6807 32.9219 19.6777H23.341C21.3549 19.6792 19.7461 21.2909 19.7476 23.277C19.7461 25.2645 21.3534 26.8763 23.3395 26.8777V26.8777Z" fill="white"/>
<path fill-rule="evenodd" clip-rule="evenodd" d="M0.589845 23.278C0.588377 25.264 2.19719 26.8758 4.18325 26.8773C6.16931 26.8758 7.77812 25.264 7.77665 23.278V19.6787H4.18325C2.19719 19.6802 0.588377 21.2919 0.589845 23.278ZM10.1708 23.278V32.878C10.1678 34.8641 11.7767 36.4758 13.7627 36.4787C15.7488 36.4773 17.3576 34.8655 17.3561 32.8795V23.2809C17.3591 21.2949 15.7502 19.6831 13.7642 19.6802C11.7767 19.6802 10.1693 21.2919 10.1708 23.278C10.1708 23.2795 10.1708 23.278 10.1708 23.278Z" fill="white"/>
</svg>
