<svg width="34" height="29" viewBox="0 0 34 29" fill="none" xmlns="http://www.w3.org/2000/svg">
<path d="M2.07945 12.7199C2.07945 12.7199 16.6719 6.73117 21.7328 4.62239C23.6729 3.77894 30.2521 1.07969 30.2521 1.07969C30.2521 1.07969 33.2887 -0.101131 33.0356 2.76669C32.9512 3.94763 32.2765 8.08068 31.6017 12.5512C30.5895 18.8775 29.4929 25.794 29.4929 25.794C29.4929 25.794 29.3242 27.7341 27.8903 28.0715C26.4564 28.4089 24.0946 26.8907 23.6729 26.5532C23.3354 26.3002 17.3467 22.5044 15.1536 20.6488C14.5631 20.1427 13.8884 19.1306 15.2379 17.9496C18.2745 15.1661 21.9015 11.7078 24.0946 9.51471C25.1068 8.50246 26.1189 6.1407 21.9015 9.00853C15.9127 13.1417 10.0083 17.0218 10.0083 17.0218C10.0083 17.0218 8.65866 17.8652 6.12821 17.1061C3.59764 16.347 0.645416 15.3348 0.645416 15.3348C0.645416 15.3348 -1.37885 14.0695 2.07945 12.7199V12.7199Z" fill="#F5F7FF"/>
</svg>
