<svg width="95" height="95" viewBox="0 0 95 95" fill="none" xmlns="http://www.w3.org/2000/svg">
<circle cx="46.9996" cy="47.9615" r="37.9615" fill="#F6F6FF"/>
<path d="M35.8725 50.9488L34.7859 50.778C34.3265 53.6996 34.5692 56.6887 35.4939 59.498L35.4939 59.498L35.4974 59.5085C35.5297 59.6033 35.5398 59.7043 35.5268 59.8037C35.5138 59.903 35.4781 59.998 35.4226 60.0814C35.367 60.1647 35.293 60.2342 35.2063 60.2844C35.1244 60.3318 35.0333 60.3608 34.9392 60.3695C31.305 60.4651 27.6786 59.9832 24.1954 58.9417L23.7584 58.8111L23.3572 59.028L20.7699 60.4265L20.7624 60.4306L15.024 63.4747C15.0235 63.4749 15.0229 63.4752 15.0224 63.4755C14.9086 63.5348 14.7798 63.5592 14.6521 63.5457C14.5238 63.5322 14.4024 63.4809 14.3032 63.3985C14.204 63.3161 14.1314 63.2061 14.0946 63.0825C14.0582 62.96 14.0584 62.8296 14.0953 62.7073C14.7929 60.5101 15.5254 58.3128 16.2927 56.1154L16.5684 55.326L15.8816 54.8492C11.3384 51.6949 8.07374 47.0192 6.6778 41.6676C6.03499 39.0391 5.92725 36.3082 6.361 33.6372C6.79502 30.9646 7.76232 28.4066 9.20531 26.1155C12.4142 21.0859 17.2307 17.29 22.8712 15.3457L22.8712 15.3457L22.8803 15.3425C27.1132 13.8416 31.6171 13.2588 36.0926 13.6328C40.5682 14.0067 44.9129 15.3288 48.8381 17.5113L48.8451 17.5152L48.8521 17.519C51.8575 19.1331 54.4832 21.3711 56.5531 24.0828C58.6208 26.7915 60.0862 29.9105 60.8514 33.2311C60.8708 33.3273 60.8682 33.4267 60.8439 33.5219C60.819 33.6193 60.7719 33.7097 60.7063 33.786L60.7015 33.7915L60.6969 33.7971C60.6366 33.869 60.5598 33.9254 60.4731 33.9613C60.3873 33.9969 60.2943 34.0115 60.2018 34.0038C56.6996 33.6696 53.166 34.0595 49.8208 35.1493C46.4744 36.2396 43.3882 38.007 40.7544 40.3415C37.6767 43.0559 35.5811 46.7103 34.793 50.7376L35.8725 50.9488ZM41.2913 24.5948L41.2877 24.5961C40.5133 24.8731 39.8272 25.3525 39.3007 25.9843C38.7779 26.6116 38.4314 27.3665 38.2964 28.1716C38.1441 28.9602 38.2108 29.7755 38.4893 30.529C38.7656 31.2767 39.2399 31.9349 39.8612 32.4336C40.6651 33.1479 41.705 33.5402 42.7811 33.5344C43.4455 33.537 44.1026 33.3959 44.7073 33.1207C45.4355 32.7914 46.0656 32.2783 46.5355 31.6318C47.0057 30.985 47.2994 30.2268 47.3877 29.432C47.476 28.6372 47.3559 27.8331 47.0392 27.0988C46.7224 26.3645 46.22 25.7253 45.5813 25.2441L45.5754 25.2397C44.9689 24.7891 44.261 24.4947 43.5139 24.3822C42.7668 24.2697 42.0035 24.3427 41.2913 24.5948ZM28.7949 30.1425C28.9713 29.5368 29.0215 28.9012 28.9422 28.2752C28.8626 27.6471 28.6544 27.0421 28.3305 26.4981C28.0067 25.9541 27.5742 25.4826 27.06 25.1132C26.5459 24.7438 25.961 24.4843 25.3421 24.351C24.7232 24.2177 24.0834 24.2134 23.4628 24.3384C22.8421 24.4634 22.2539 24.715 21.7348 25.0775C21.2157 25.44 20.7769 25.9056 20.4458 26.4452C20.1167 26.9817 19.901 27.5798 19.812 28.2028C19.6866 28.9919 19.7686 29.8001 20.0501 30.5481C20.3314 31.2955 20.8021 31.9568 21.416 32.4673C22.2189 33.1598 23.2451 33.5389 24.3057 33.5344L24.3135 33.5343C24.8267 33.5285 25.3352 33.437 25.8181 33.2636C26.5296 33.0263 27.1725 32.6189 27.6908 32.0766C28.2115 31.5319 28.5906 30.8678 28.7949 30.1425Z" fill="white" stroke="#202058" stroke-width="2.2"/>
<g filter="url(#filter0_d)">
<ellipse cx="65.7954" cy="54.0878" rx="14.0297" ry="5.95201" fill="#3434FF"/>
<path d="M87.5581 53.264C85.431 48.6781 81.7909 44.9637 77.2489 42.7444C73.3701 40.7953 69.0892 39.7803 64.7482 39.7803C60.4072 39.7803 56.1263 40.7953 52.2475 42.7444C49.4448 44.1011 46.9782 46.063 45.0257 48.4885C43.0731 50.9141 41.6833 53.7427 40.9565 56.7705C39.932 61.3843 40.7498 66.2159 43.2357 70.2355C45.0689 73.0752 47.476 75.5 50.3022 77.3539C53.1285 79.2079 56.3113 80.45 59.6462 81.0005C64.1534 81.8172 68.7894 81.565 73.1814 80.2642C74.3831 80.8324 75.5536 81.4645 76.6879 82.1577C77.7048 82.7187 78.7217 83.3148 79.7736 83.8057C80.0277 83.8619 80.291 83.8619 80.5451 83.8057C80.8172 83.8057 81.0857 83.7424 81.3292 83.6206C81.5726 83.4989 81.7844 83.3222 81.9477 83.1044C82.111 82.8867 82.2214 82.6339 82.27 82.3661C82.3187 82.0983 82.3044 81.8229 82.2282 81.5616C81.6905 79.7849 81.1295 78.02 80.5451 76.2667C83.1975 74.3027 85.368 71.7605 86.8919 68.8329C88.1535 66.4506 88.8679 63.817 88.9832 61.1237C89.0984 58.4304 88.6116 55.7453 87.5581 53.264V53.264ZM61.3995 55.403C61.2443 55.9569 60.9552 56.4641 60.5577 56.8799C60.1603 57.2957 59.6666 57.6074 59.1202 57.7874C58.7491 57.9222 58.3579 57.9933 57.9631 57.9978C57.1647 58.0011 56.3921 57.7146 55.7891 57.1913C55.318 56.8018 54.957 56.296 54.7417 55.724C54.5264 55.152 54.4644 54.5336 54.5618 53.9302C54.6288 53.453 54.7934 52.9946 55.0455 52.5838C55.2975 52.1731 55.6315 51.8186 56.0266 51.5427C56.4218 51.2668 56.8695 51.0753 57.342 50.9801C57.8144 50.885 58.3014 50.8882 58.7726 50.9897C59.2437 51.0912 59.6889 51.2887 60.0803 51.5699C60.4717 51.8511 60.8009 52.21 61.0474 52.6241C61.2939 53.0382 61.4524 53.4987 61.513 53.9768C61.5735 54.455 61.5349 54.9404 61.3995 55.403ZM76.1619 55.403C76.0067 55.9569 75.7177 56.4641 75.3202 56.8799C74.9227 57.2957 74.429 57.6074 73.8827 57.7874C73.5116 57.9222 73.1203 57.9933 72.7255 57.9978C71.9271 58.0011 71.1546 57.7146 70.5515 57.1913C70.0805 56.8018 69.7194 56.296 69.5041 55.724C69.2889 55.152 69.2268 54.5336 69.3242 53.9302C69.3912 53.453 69.5559 52.9946 69.8079 52.5838C70.0599 52.1731 70.3939 51.8186 70.7891 51.5427C71.1842 51.2668 71.632 51.0753 72.1044 50.9801C72.5769 50.885 73.0639 50.8882 73.535 50.9897C74.0061 51.0912 74.4513 51.2887 74.8427 51.5699C75.2341 51.8511 75.5633 52.21 75.8098 52.6241C76.0563 53.0382 76.2148 53.4987 76.2754 53.9768C76.336 54.455 76.2973 54.9404 76.1619 55.403V55.403Z" fill="#3434FF"/>
</g>
<path d="M17.5996 22.5996H49.0996L50.4596 32.4458L39.8286 36.6112L17.5996 35.1996V22.5996Z" fill="white"/>
<rect x="51.0381" y="52" width="24.2308" height="4.03846" rx="2.01923" fill="white"/>
<rect x="14.6924" y="26.1543" width="24.2308" height="4.03846" rx="2.01923" fill="#DFDFEB"/>
<rect x="51.0381" y="60.0771" width="16.9615" height="4.03846" rx="2.01923" fill="white"/>
<rect x="14.6924" y="34.2314" width="16.9615" height="4.03846" rx="2.01923" fill="#DFDFEB"/>
<defs>
<filter id="filter0_d" x="34.5254" y="38.7803" width="60.4744" height="56.0676" filterUnits="userSpaceOnUse" color-interpolation-filters="sRGB">
<feFlood flood-opacity="0" result="BackgroundImageFix"/>
<feColorMatrix in="SourceAlpha" type="matrix" values="0 0 0 0 0 0 0 0 0 0 0 0 0 0 0 0 0 0 127 0"/>
<feOffset dy="5"/>
<feGaussianBlur stdDeviation="3"/>
<feColorMatrix type="matrix" values="0 0 0 0 0.203922 0 0 0 0 0.203922 0 0 0 0 1 0 0 0 0.28 0"/>
<feBlend mode="normal" in2="BackgroundImageFix" result="effect1_dropShadow"/>
<feBlend mode="normal" in="SourceGraphic" in2="effect1_dropShadow" result="shape"/>
</filter>
</defs>
</svg>
