<svg width="484" height="309" viewBox="0 0 484 309" fill="none" xmlns="http://www.w3.org/2000/svg">
<rect x="0.820312" y="0.592773" width="482.211" height="307.715" rx="23" fill="white"/>
<path d="M328.841 37.0322C319.605 37.0322 312.092 44.5456 312.092 53.7819C312.092 63.0183 319.605 70.5316 328.841 70.5316C338.078 70.5316 345.591 63.0183 345.591 53.7819C345.591 44.5456 338.078 37.0322 328.841 37.0322ZM327.486 59.2914C326.153 60.0757 324.472 59.1144 324.472 57.5676V49.9963C324.472 48.4494 326.153 47.4881 327.486 48.2724L333.922 52.0581C335.236 52.8314 335.236 54.7325 333.922 55.5058L327.486 59.2914Z" fill="#B5B5E2"/>
<rect x="353.251" y="40.0151" width="66.0574" height="8.04549" rx="4.02275" fill="#BBBBD5"/>
<rect x="353.251" y="53.2656" width="94.2668" height="5.28075" rx="2.64038" fill="#E5E5EE"/>
<rect x="353.251" y="62.2666" width="57.7964" height="5.28075" rx="2.64038" fill="#E5E5EE"/>
<path d="M328.841 87.3667C319.605 87.3667 312.092 94.88 312.092 104.116C312.092 113.353 319.605 120.866 328.841 120.866C338.078 120.866 345.591 113.353 345.591 104.116C345.591 94.88 338.078 87.3667 328.841 87.3667ZM327.486 109.626C326.153 110.41 324.472 109.449 324.472 107.902V100.331C324.472 98.7839 326.153 97.8226 327.486 98.6069L333.922 102.393C335.236 103.166 335.236 105.067 333.922 105.84L327.486 109.626Z" fill="#B5B5E2"/>
<rect x="353.252" y="90.3496" width="37.1569" height="8.04549" rx="4.02275" fill="#BBBBD5"/>
<rect x="353.252" y="103.6" width="57.7964" height="5.28075" rx="2.64038" fill="#E5E5EE"/>
<rect x="353.252" y="112.602" width="94.2668" height="5.28075" rx="2.64038" fill="#E5E5EE"/>
<path d="M328.841 137.7C319.605 137.7 312.092 145.214 312.092 154.45C312.092 163.686 319.605 171.2 328.841 171.2C338.078 171.2 345.591 163.686 345.591 154.45C345.591 145.214 338.078 137.7 328.841 137.7ZM327.486 159.959C326.153 160.744 324.472 159.782 324.472 158.236V150.664C324.472 149.117 326.153 148.156 327.486 148.94L333.922 152.726C335.236 153.499 335.236 155.4 333.922 156.174L327.486 159.959Z" fill="#B5B5E2"/>
<rect x="353.252" y="140.684" width="85.0506" height="8.04549" rx="4.02275" fill="#BBBBD5"/>
<rect x="353.252" y="153.933" width="71.7366" height="5.28075" rx="2.64038" fill="#E5E5EE"/>
<rect x="353.252" y="162.937" width="94.2668" height="5.28075" rx="2.64038" fill="#E5E5EE"/>
<path d="M328.841 188.035C319.605 188.035 312.092 195.548 312.092 204.785C312.092 214.021 319.605 221.535 328.841 221.535C338.078 221.535 345.591 214.021 345.591 204.785C345.591 195.548 338.078 188.035 328.841 188.035ZM327.486 210.294C326.153 211.079 324.472 210.117 324.472 208.57V200.999C324.472 199.452 326.153 198.491 327.486 199.275L333.922 203.061C335.236 203.834 335.236 205.735 333.922 206.509L327.486 210.294Z" fill="#B5B5E2"/>
<rect x="353.252" y="191.019" width="37.1569" height="8.04549" rx="4.02275" fill="#BBBBD5"/>
<rect x="353.252" y="204.268" width="83.2602" height="5.28075" rx="2.64038" fill="#E5E5EE"/>
<rect x="353.252" y="213.27" width="53.2481" height="5.28075" rx="2.64038" fill="#E5E5EE"/>
<path d="M328.841 238.37C319.605 238.37 312.092 245.883 312.092 255.119C312.092 264.356 319.605 271.869 328.841 271.869C338.078 271.869 345.591 264.356 345.591 255.119C345.591 245.883 338.078 238.37 328.841 238.37ZM327.486 260.629C326.153 261.413 324.472 260.452 324.472 258.905V251.334C324.472 249.787 326.153 248.826 327.486 249.61L333.922 253.395C335.236 254.169 335.236 256.07 333.922 256.843L327.486 260.629Z" fill="#6B6B89"/>
<rect x="353.252" y="241.353" width="37.1569" height="8.04549" rx="4.02275" fill="#BBBBD5"/>
<rect x="353.252" y="254.602" width="83.2602" height="5.28075" rx="2.64038" fill="#E5E5EE"/>
<rect x="353.252" y="263.604" width="53.2481" height="5.28075" rx="2.64038" fill="#E5E5EE"/>
<rect x="36.333" y="37.0327" width="239.561" height="134.353" rx="7" fill="#EDEDFF"/>
<g filter="url(#filter0_d)">
<circle cx="156.53" cy="102.728" r="21.2316" fill="white"/>
<path d="M156.113 67.2734C136.513 67.2734 120.569 83.2172 120.569 102.817C120.569 122.418 136.513 138.361 156.113 138.361C175.713 138.361 191.657 122.418 191.657 102.817C191.657 83.2172 175.713 67.2734 156.113 67.2734ZM149.855 116.498C148.522 117.283 146.841 116.321 146.841 114.774V90.8603C146.841 89.3135 148.522 88.3522 149.855 89.1365L170.182 101.094C171.497 101.867 171.497 103.768 170.182 104.541L149.855 116.498Z" fill="#3434FF"/>
</g>
<rect x="36.332" y="183.098" width="141.412" height="11.3056" rx="5.65278" fill="#BBBBD4"/>
<rect x="36.332" y="243.606" width="239.561" height="9.04444" rx="4.52222" fill="#E7E7F4"/>
<rect x="36.332" y="201.187" width="93.0528" height="9.04444" rx="4.52222" fill="#E7E7F4"/>
<rect x="36.332" y="262.825" width="157.637" height="9.04444" rx="4.52222" fill="#E7E7F4"/>
<circle cx="246.687" cy="190.984" r="7.88597" fill="#E7E7F4"/>
<circle cx="268.007" cy="190.984" r="7.88597" fill="#E7E7F4"/>
<line x1="36.332" y1="227.534" x2="275.893" y2="227.534" stroke="#E7E7F4"/>
<defs>
<filter id="filter0_d" x="96.5693" y="47.2734" width="119.088" height="119.088" filterUnits="userSpaceOnUse" color-interpolation-filters="sRGB">
<feFlood flood-opacity="0" result="BackgroundImageFix"/>
<feColorMatrix in="SourceAlpha" type="matrix" values="0 0 0 0 0 0 0 0 0 0 0 0 0 0 0 0 0 0 127 0"/>
<feOffset dy="4"/>
<feGaussianBlur stdDeviation="12"/>
<feColorMatrix type="matrix" values="0 0 0 0 0.203922 0 0 0 0 0.203922 0 0 0 0 1 0 0 0 0.54 0"/>
<feBlend mode="normal" in2="BackgroundImageFix" result="effect1_dropShadow"/>
<feBlend mode="normal" in="SourceGraphic" in2="effect1_dropShadow" result="shape"/>
</filter>
</defs>
</svg>
