<svg xmlns="http://www.w3.org/2000/svg" width="594" height="344" fill="none" viewBox="0 0 594 344"><path fill="#3434FF" d="M0.0410156 0H593.195V343.997H0.0410156V0Z"/><g filter="url(#filter0_d)"><circle cx="130.307" cy="158.948" r="5.715" fill="#3434FF"/></g><g filter="url(#filter1_d)"><path fill="#D9D9FF" d="M513.107 121.867C513.107 120.979 513.826 120.259 514.714 120.259H529.617C530.505 120.259 531.224 120.979 531.224 121.867V127.711C531.224 128.599 530.505 129.318 529.617 129.318H514.714C513.826 129.318 513.107 128.599 513.107 127.711V121.867Z"/><path fill="#fff" d="M516.125 115.47C517.306 115.47 520.984 115.47 522.164 115.47C523.345 115.47 527.023 115.47 528.204 115.47C530.457 115.47 532.282 113.72 532.443 111.508C532.443 111.505 532.445 111.503 532.448 111.503V111.503C532.451 111.504 532.454 111.501 532.454 111.499C532.456 108.306 534.245 105.16 537.262 102.142C539.739 99.6656 539.856 96.501 537.836 92.7536C531.78 81.5251 527.636 73.3506 526.19 70.5321C526.189 70.5294 526.186 70.5285 526.183 70.5297V70.5297C526.18 70.531 526.176 70.5295 526.175 70.5263C525.973 69.9427 525.65 69.3922 525.184 68.9257V68.9257C524.837 68.579 524.299 68.8817 524.299 69.372L524.299 91.3138C524.299 92 524.699 92.5976 525.184 93.0828V93.0828C526.852 94.7511 526.852 97.4537 525.184 99.122C524.35 99.9555 523.257 100.372 522.164 100.372C521.071 100.372 519.978 99.9555 519.145 99.122C517.476 97.4537 517.476 94.7511 519.145 93.0828V93.0828C519.63 92.5976 520.029 92 520.029 91.3138L520.029 69.372C520.029 68.8817 519.491 68.579 519.145 68.9257V68.9257C518.678 69.3922 518.356 69.9427 518.152 70.5248C518.151 70.528 518.147 70.5295 518.144 70.5282V70.5282C518.141 70.527 518.138 70.5279 518.137 70.5306C516.691 73.3491 512.546 81.5235 506.491 92.7521C504.472 96.501 504.59 99.6656 507.066 102.142C510.084 105.16 511.873 108.306 511.875 111.499C511.875 111.501 511.877 111.504 511.88 111.503V111.503C511.883 111.503 511.886 111.505 511.886 111.508C512.047 113.72 513.873 115.472 516.125 115.47Z"/><path fill="#fff" d="M508.774 139.448C508.666 136.713 510.855 134.436 513.592 134.436H530.753C533.485 134.436 535.671 136.703 535.572 139.433L530.106 290.322C530.012 292.915 527.882 294.969 525.287 294.969H519.539C516.95 294.969 514.823 292.924 514.721 290.337L508.774 139.448Z"/></g><g filter="url(#filter2_d)"><rect width="46.616" height="228.26" x="54.695" y="65.906" fill="#fff" rx="8.037"/><line x1="54.822" x2="69.097" y1="97.252" y2="97.252" stroke="#DFDFF8" stroke-width="1.607"/><line x1="54.775" x2="78.806" y1="106.345" y2="106.345" stroke="#D2D2F0" stroke-width="1.607"/><line x1="54.822" x2="69.097" y1="115.44" y2="115.44" stroke="#DFDFF8" stroke-width="1.607"/><line x1="54.775" x2="78.806" y1="124.532" y2="124.532" stroke="#D2D2F0" stroke-width="1.607"/><line x1="54.822" x2="69.097" y1="133.626" y2="133.626" stroke="#DFDFF8" stroke-width="1.607"/><line x1="54.775" x2="78.806" y1="142.721" y2="142.721" stroke="#D2D2F0" stroke-width="1.607"/><line x1="54.822" x2="69.097" y1="151.815" y2="151.815" stroke="#DFDFF8" stroke-width="1.607"/><line x1="54.775" x2="78.806" y1="160.908" y2="160.908" stroke="#D2D2F0" stroke-width="1.607"/><line x1="54.822" x2="69.097" y1="170.002" y2="170.002" stroke="#DFDFF8" stroke-width="1.607"/><line x1="54.775" x2="78.806" y1="179.096" y2="179.096" stroke="#D2D2F0" stroke-width="1.607"/><line x1="54.822" x2="69.097" y1="188.19" y2="188.19" stroke="#DFDFF8" stroke-width="1.607"/><line x1="54.775" x2="78.806" y1="197.283" y2="197.283" stroke="#D2D2F0" stroke-width="1.607"/><line x1="54.775" x2="78.806" y1="234.357" y2="234.357" stroke="#D2D2F0" stroke-width="1.607"/><line x1="54.822" x2="69.097" y1="206.377" y2="206.377" stroke="#DFDFF8" stroke-width="1.607"/><line x1="54.822" x2="69.097" y1="243.451" y2="243.451" stroke="#DFDFF8" stroke-width="1.607"/><line x1="54.775" x2="78.806" y1="215.471" y2="215.471" stroke="#D2D2F0" stroke-width="1.607"/><line x1="54.775" x2="78.806" y1="252.545" y2="252.545" stroke="#D2D2F0" stroke-width="1.607"/><line x1="54.822" x2="69.097" y1="224.564" y2="224.564" stroke="#DFDFF8" stroke-width="1.607"/><line x1="54.822" x2="69.097" y1="261.638" y2="261.638" stroke="#DFDFF8" stroke-width="1.607"/></g><g filter="url(#filter3_d)"><rect width="368.931" height="226.774" x="119.002" y="66.649" fill="#fff" rx="22.505"/></g><line x1="138.059" x2="282.881" y1="137.516" y2="137.516" stroke="#EFEFF9" stroke-linecap="round" stroke-width="1.286"/><line x1="136.83" x2="281.652" y1="195.222" y2="195.222" stroke="#EFEFF9" stroke-linecap="round" stroke-width="1.286"/><line x1="151.561" x2="151.561" y1="125.881" y2="267.078" stroke="#EFEFF9" stroke-width="1.286"/><line x1="151.799" x2="151.799" y1="124.832" y2="267.395" stroke="#EFEFF9" stroke-linecap="round" stroke-width="1.286"/><line x1="209.27" x2="209.27" y1="126.524" y2="266.435" stroke="#EFEFF9" stroke-linecap="round" stroke-width="1.286"/><path stroke="#EFEFF9" stroke-linecap="round" stroke-width="1.286" d="M141 267.192L278.88 127.109"/><path stroke="#EFEFF9" stroke-linecap="round" stroke-width="1.286" d="M139.6 125.881L278.081 266.346"/><line x1="268.571" x2="268.571" y1="124.832" y2="267.395" stroke="#EFEFF9" stroke-linecap="round" stroke-width="1.286"/><line x1="137.416" x2="283.524" y1="256.612" y2="256.612" stroke="#EFEFF9" stroke-width="1.286"/><path fill="#E0E0F1" d="M259.805 200.163C261.809 200.163 263.433 198.539 263.433 196.536C263.433 194.532 261.809 192.908 259.805 192.908C257.802 192.908 256.178 194.532 256.178 196.536C256.178 198.539 257.802 200.163 259.805 200.163Z"/><path fill="#E0E0F1" d="M158.231 200.163C160.235 200.163 161.859 198.539 161.859 196.536C161.859 194.532 160.235 192.908 158.231 192.908C156.228 192.908 154.604 194.532 154.604 196.536C154.604 198.539 156.228 200.163 158.231 200.163Z"/><g filter="url(#filter4_d)"><path fill="#3434FF" d="M209.016 207.419C215.026 207.419 219.899 202.546 219.899 196.536C219.899 190.525 215.026 185.653 209.016 185.653C203.005 185.653 198.133 190.525 198.133 196.536C198.133 202.546 203.005 207.419 209.016 207.419Z"/></g><path fill="#3434FF" d="M262.712 194.388C262.712 194.388 241.661 160.26 209.013 160.26C176.364 160.26 155.313 194.388 155.313 194.388L155.189 198.509C155.186 198.509 172.736 232.812 209.013 232.812C245.289 232.812 262.839 198.509 262.839 198.509L262.712 194.388ZM209.013 221.929C194.988 221.929 183.619 210.56 183.619 196.536C183.619 182.511 194.988 171.142 209.013 171.142C223.037 171.142 234.406 182.511 234.406 196.536C234.406 210.56 223.037 221.929 209.013 221.929Z"/><rect width="19.131" height="19.131" x="172.08" y="83.544" fill="#4343BE" rx="9.565"/><rect width="19.131" height="19.131" x="259.129" y="83.544" fill="#ACACE8" rx="9.565"/><rect width="19.131" height="19.131" x="201.096" y="83.544" fill="#3434FC" rx="9.565"/><rect width="19.131" height="19.131" x="143.064" y="83.544" fill="#414193" rx="9.565"/><rect width="19.131" height="19.131" x="230.115" y="83.544" fill="#7171F0" rx="9.565"/><path fill="#F7F7FC" d="M303.469 66.6489H465.43C477.859 66.6489 487.934 76.7245 487.934 89.1534V270.918C487.934 283.347 477.859 293.423 465.43 293.423H303.469V66.6489Z"/><rect width="84.235" height="5.911" x="385.416" y="112.294" fill="#E3E3F5" rx="2.956"/><rect width="54.679" height="5.911" x="385.416" y="124.117" fill="#E3E3F5" rx="2.956"/><rect width="59.112" height="5.911" x="385.416" y="100.472" fill="#C6C6E3" rx="2.956"/><rect width="69.386" height="45.693" x="320.393" y="181.728" fill="#E8E8F7" rx="8.037"/><path fill="#B2B2D7" d="M365.692 201.584C365.482 201.12 365.155 200.719 364.743 200.42C364.331 200.121 363.849 199.934 363.342 199.878C362.844 199.873 362.353 200.004 361.923 200.256C361.492 200.508 361.138 200.872 360.898 201.309L360.884 201.331L356.318 209.144C356.264 209.236 356.189 209.315 356.1 209.374C356.011 209.432 355.909 209.47 355.803 209.483C355.697 209.495 355.589 209.484 355.489 209.448C355.388 209.413 355.296 209.356 355.221 209.28L350.51 204.505C350.488 204.482 350.464 204.46 350.438 204.441C350.144 204.213 349.804 204.053 349.442 203.971C349.079 203.889 348.703 203.888 348.34 203.968C347.977 204.047 347.636 204.206 347.342 204.432C347.047 204.658 346.805 204.946 346.634 205.276L346.618 205.304L339.821 216.914C339.76 217.02 339.727 217.14 339.727 217.263C339.726 217.385 339.758 217.506 339.819 217.612C339.88 217.718 339.968 217.806 340.074 217.868C340.18 217.929 340.3 217.961 340.423 217.961H372.878C372.997 217.961 373.115 217.931 373.218 217.873C373.322 217.815 373.41 217.731 373.472 217.63C373.534 217.528 373.569 217.412 373.573 217.293C373.577 217.174 373.551 217.056 373.497 216.95L365.692 201.584Z"/><path fill="#B2B2D7" d="M344.807 200.19C347.114 200.19 348.984 198.32 348.984 196.013C348.984 193.707 347.114 191.837 344.807 191.837C342.501 191.837 340.631 193.707 340.631 196.013C340.631 198.32 342.501 200.19 344.807 200.19Z"/><rect width="66.001" height="5.077" x="321.111" y="246.037" fill="#E3E3F5" rx="2.539"/><rect width="54.155" height="5.077" x="328.854" y="256.191" fill="#E3E3F5" rx="2.539"/><rect width="45.693" height="5.077" x="331.264" y="235.883" fill="#C6C6E3" rx="2.539"/><rect width="53.201" height="53.201" x="320.393" y="88.649" fill="#E8E8F7" rx="12.86"/><path fill="#B2B2D7" d="M351.858 99.528C351.744 99.2078 351.441 98.994 351.101 98.994H342.887C342.547 98.994 342.244 99.2078 342.13 99.528L331.121 130.432C330.934 130.956 331.322 131.506 331.878 131.506H337.643C337.986 131.506 338.291 131.288 338.403 130.963L340.31 125.415C340.421 125.09 340.727 124.872 341.07 124.872H352.918C353.261 124.872 353.567 125.09 353.678 125.415L355.585 130.963C355.697 131.288 356.002 131.506 356.345 131.506H362.11C362.666 131.506 363.054 130.956 362.868 130.432L351.858 99.528ZM343.628 118.981C343.076 118.981 342.689 118.439 342.867 117.917L346.253 108.033C346.501 107.307 347.528 107.309 347.774 108.035L351.126 117.919C351.302 118.44 350.915 118.981 350.364 118.981H343.628Z"/><rect width="69.386" height="45.693" x="399.93" y="181.728" fill="#E8E8F7" rx="8.037"/><rect width="49.078" height="5.077" x="410.084" y="246.037" fill="#E3E3F5" rx="2.539"/><rect width="69.386" height="5.077" x="399.93" y="256.191" fill="#E3E3F5" rx="2.539"/><rect width="69.386" height="5.077" x="399.93" y="235.883" fill="#C6C6E3" rx="2.539"/><path fill="#B2B2D7" d="M443.933 201.142C443.734 200.702 443.423 200.321 443.032 200.036C442.64 199.752 442.182 199.574 441.701 199.521C441.227 199.517 440.761 199.641 440.352 199.88C439.943 200.12 439.607 200.465 439.378 200.881L439.365 200.902L435.027 208.324C434.976 208.411 434.905 208.486 434.82 208.542C434.736 208.598 434.639 208.634 434.538 208.646C434.437 208.658 434.335 208.647 434.24 208.613C434.144 208.58 434.057 208.525 433.985 208.453L429.51 203.917C429.489 203.895 429.466 203.874 429.441 203.856C429.162 203.64 428.839 203.487 428.495 203.41C428.151 203.332 427.793 203.331 427.449 203.407C427.104 203.482 426.78 203.633 426.5 203.848C426.22 204.063 425.991 204.336 425.828 204.65L425.812 204.676L419.356 215.706C419.297 215.806 419.266 215.921 419.266 216.037C419.265 216.153 419.296 216.268 419.354 216.369C419.411 216.469 419.495 216.553 419.596 216.611C419.696 216.67 419.811 216.7 419.927 216.7H450.76C450.873 216.701 450.984 216.672 451.083 216.617C451.182 216.562 451.264 216.482 451.323 216.385C451.382 216.289 451.416 216.179 451.42 216.066C451.424 215.953 451.399 215.841 451.347 215.74L443.933 201.142Z"/><path fill="#B2B2D7" d="M424.093 199.817C426.284 199.817 428.06 198.041 428.06 195.85C428.06 193.659 426.284 191.882 424.093 191.882C421.901 191.882 420.125 193.659 420.125 195.85C420.125 198.041 421.901 199.817 424.093 199.817Z"/><line x1="321.915" x2="469.234" y1="160.616" y2="160.616" stroke="#E7E7F3" stroke-linecap="round" stroke-width="1.607"/><defs><filter id="filter0_d" width="21.076" height="21.076" x="119.769" y="151.626" color-interpolation-filters="sRGB" filterUnits="userSpaceOnUse"><feFlood flood-opacity="0" result="BackgroundImageFix"/><feColorMatrix in="SourceAlpha" type="matrix" values="0 0 0 0 0 0 0 0 0 0 0 0 0 0 0 0 0 0 127 0"/><feOffset dy="3.215"/><feGaussianBlur stdDeviation="2.411"/><feColorMatrix type="matrix" values="0 0 0 0 0.203922 0 0 0 0 0.203922 0 0 0 0 1 0 0 0 0.19 0"/><feBlend in2="BackgroundImageFix" mode="normal" result="effect1_dropShadow"/><feBlend in="SourceGraphic" in2="effect1_dropShadow" mode="normal" result="shape"/></filter><filter id="filter1_d" width="83.078" height="254.783" x="480.625" y="56.261" color-interpolation-filters="sRGB" filterUnits="userSpaceOnUse"><feFlood flood-opacity="0" result="BackgroundImageFix"/><feColorMatrix in="SourceAlpha" type="matrix" values="0 0 0 0 0 0 0 0 0 0 0 0 0 0 0 0 0 0 127 0"/><feOffset dy="3.215"/><feGaussianBlur stdDeviation="6.43"/><feColorMatrix type="matrix" values="0 0 0 0 0.040625 0 0 0 0 0.040625 0 0 0 0 0.375 0 0 0 0.16 0"/><feBlend in2="BackgroundImageFix" mode="normal" result="effect1_dropShadow"/><feBlend in="SourceGraphic" in2="effect1_dropShadow" mode="normal" result="shape"/></filter><filter id="filter2_d" width="72.336" height="253.979" x="41.836" y="56.261" color-interpolation-filters="sRGB" filterUnits="userSpaceOnUse"><feFlood flood-opacity="0" result="BackgroundImageFix"/><feColorMatrix in="SourceAlpha" type="matrix" values="0 0 0 0 0 0 0 0 0 0 0 0 0 0 0 0 0 0 127 0"/><feOffset dy="3.215"/><feGaussianBlur stdDeviation="6.43"/><feColorMatrix type="matrix" values="0 0 0 0 0.0431373 0 0 0 0 0.0431373 0 0 0 0 0.172549 0 0 0 0.16 0"/><feBlend in2="BackgroundImageFix" mode="normal" result="effect1_dropShadow"/><feBlend in="SourceGraphic" in2="effect1_dropShadow" mode="normal" result="shape"/></filter><filter id="filter3_d" width="436.444" height="294.287" x="85.245" y="42.537" color-interpolation-filters="sRGB" filterUnits="userSpaceOnUse"><feFlood flood-opacity="0" result="BackgroundImageFix"/><feColorMatrix in="SourceAlpha" type="matrix" values="0 0 0 0 0 0 0 0 0 0 0 0 0 0 0 0 0 0 127 0"/><feOffset dy="9.645"/><feGaussianBlur stdDeviation="16.878"/><feColorMatrix type="matrix" values="0 0 0 0 0.0240625 0 0 0 0 0.0240625 0 0 0 0 0.175 0 0 0 0.29 0"/><feBlend in2="BackgroundImageFix" mode="normal" result="effect1_dropShadow"/><feBlend in="SourceGraphic" in2="effect1_dropShadow" mode="normal" result="shape"/></filter><filter id="filter4_d" width="41.055" height="41.055" x="188.488" y="179.223" color-interpolation-filters="sRGB" filterUnits="userSpaceOnUse"><feFlood flood-opacity="0" result="BackgroundImageFix"/><feColorMatrix in="SourceAlpha" type="matrix" values="0 0 0 0 0 0 0 0 0 0 0 0 0 0 0 0 0 0 127 0"/><feOffset dy="3.215"/><feGaussianBlur stdDeviation="4.822"/><feColorMatrix type="matrix" values="0 0 0 0 0.203922 0 0 0 0 0.203922 0 0 0 0 1 0 0 0 0.38 0"/><feBlend in2="BackgroundImageFix" mode="normal" result="effect1_dropShadow"/><feBlend in="SourceGraphic" in2="effect1_dropShadow" mode="normal" result="shape"/></filter></defs></svg>