<svg xmlns="http://www.w3.org/2000/svg" width="132" height="235" fill="none" viewBox="0 0 132 235"><rect width="132" height="234.226" fill="#fff" rx="22"/><g filter="url(#filter0_d)"><rect width="54.667" height="16.49" x="38.667" y="202.508" fill="#3434FF" rx="8.245"/></g><g filter="url(#filter1_d)"><rect width="105.219" height="41.173" x="13.39" y="15.227" fill="#3434FF" rx="7"/></g><rect width="55.136" height="5.777" x="38.432" y="37.993" fill="#D6D6FF" rx="2.889"/><rect width="35.363" height="5.777" x="48.318" y="27.856" fill="#fff" rx="2.889"/><rect width="105.219" height="69.587" x="13.39" y="121.773" fill="#F8F8FF" rx="6"/><rect width="33.857" height="4.339" x="49.697" y="136.384" fill="#BCBCDF" rx="2.169"/><rect width="53.896" height="4.339" x="49.697" y="144.043" fill="#E0E0EF" rx="2.169"/><rect width="57.248" height="4.339" x="49.697" y="164.752" fill="#BCBCDF" rx="2.169"/><rect width="40.006" height="4.339" x="49.697" y="172.412" fill="#E0E0EF" rx="2.169"/><rect width="21.789" height="21.727" x="21.226" y="131.52" fill="#DFDFF4" rx="3"/><rect width="21.789" height="21.727" x="21.226" y="159.888" fill="#DFDFF4" rx="3"/><ellipse cx="20.049" cy="78.903" fill="#3434FF" rx="6.659" ry="6.641"/><ellipse cx="79.635" cy="78.903" fill="#3434FF" rx="6.659" ry="6.641"/><ellipse cx="20.049" cy="100.905" fill="#DFDFF4" rx="6.659" ry="6.641"/><ellipse cx="79.635" cy="100.905" fill="#DFDFF4" rx="6.659" ry="6.641"/><rect width="19.992" height="3.232" x="30.979" y="73.742" fill="#BCBCDF" rx="1.616"/><rect width="19.992" height="3.232" x="90.564" y="73.742" fill="#BCBCDF" rx="1.616"/><rect width="19.992" height="3.232" x="30.979" y="95.745" fill="#BCBCDF" rx="1.616"/><rect width="19.992" height="3.232" x="90.564" y="95.745" fill="#BCBCDF" rx="1.616"/><rect width="28.045" height="3.232" x="30.979" y="79.975" fill="#E0E0EF" rx="1.616"/><rect width="28.045" height="3.232" x="90.564" y="79.975" fill="#E0E0EF" rx="1.616"/><rect width="28.045" height="3.232" x="30.979" y="101.977" fill="#E0E0EF" rx="1.616"/><rect width="28.045" height="3.232" x="90.564" y="101.977" fill="#E0E0EF" rx="1.616"/><defs><filter id="filter0_d" width="66.667" height="28.49" x="32.667" y="199.508" color-interpolation-filters="sRGB" filterUnits="userSpaceOnUse"><feFlood flood-opacity="0" result="BackgroundImageFix"/><feColorMatrix in="SourceAlpha" type="matrix" values="0 0 0 0 0 0 0 0 0 0 0 0 0 0 0 0 0 0 127 0"/><feOffset dy="3"/><feGaussianBlur stdDeviation="3"/><feColorMatrix type="matrix" values="0 0 0 0 0.203922 0 0 0 0 0.203922 0 0 0 0 1 0 0 0 0.32 0"/><feBlend in2="BackgroundImageFix" mode="normal" result="effect1_dropShadow"/><feBlend in="SourceGraphic" in2="effect1_dropShadow" mode="normal" result="shape"/></filter><filter id="filter1_d" width="121.219" height="57.173" x="5.39" y="13.227" color-interpolation-filters="sRGB" filterUnits="userSpaceOnUse"><feFlood flood-opacity="0" result="BackgroundImageFix"/><feColorMatrix in="SourceAlpha" type="matrix" values="0 0 0 0 0 0 0 0 0 0 0 0 0 0 0 0 0 0 127 0"/><feOffset dy="6"/><feGaussianBlur stdDeviation="4"/><feColorMatrix type="matrix" values="0 0 0 0 0.203922 0 0 0 0 0.203922 0 0 0 0 1 0 0 0 0.1 0"/><feBlend in2="BackgroundImageFix" mode="normal" result="effect1_dropShadow"/><feBlend in="SourceGraphic" in2="effect1_dropShadow" mode="normal" result="shape"/></filter></defs></svg>