<svg width="132" height="235" viewBox="0 0 132 235" fill="none" xmlns="http://www.w3.org/2000/svg">
<rect width="132" height="234.226" rx="22" fill="white"/>
<g filter="url(#filter0_d)">
<rect x="38.667" y="202.508" width="54.6668" height="16.4903" rx="8.24516" fill="#3434FF"/>
</g>
<g filter="url(#filter1_d)">
<rect x="13.3896" y="15.2275" width="105.219" height="41.1733" rx="7" fill="#3434FF"/>
</g>
<rect x="38.4316" y="37.9932" width="55.1361" height="5.7774" rx="2.8887" fill="#D6D6FF"/>
<rect x="48.3184" y="27.8564" width="35.3629" height="5.7774" rx="2.8887" fill="white"/>
<rect x="13.3896" y="121.773" width="105.219" height="69.5866" rx="6" fill="#F8F8FF"/>
<rect x="49.6973" y="136.384" width="33.8574" height="4.33892" rx="2.16946" fill="#BCBCDF"/>
<rect x="49.6973" y="144.043" width="53.8964" height="4.33892" rx="2.16946" fill="#E0E0EF"/>
<rect x="49.6973" y="164.752" width="57.2483" height="4.33892" rx="2.16946" fill="#BCBCDF"/>
<rect x="49.6973" y="172.412" width="40.0058" height="4.33892" rx="2.16946" fill="#E0E0EF"/>
<rect x="21.2256" y="131.52" width="21.7892" height="21.7268" rx="3" fill="#DFDFF4"/>
<rect x="21.2256" y="159.888" width="21.7892" height="21.7268" rx="3" fill="#DFDFF4"/>
<ellipse cx="20.049" cy="78.9029" rx="6.6593" ry="6.6412" fill="#3434FF"/>
<ellipse cx="79.6349" cy="78.9029" rx="6.6593" ry="6.6412" fill="#3434FF"/>
<ellipse cx="20.049" cy="100.905" rx="6.6593" ry="6.6412" fill="#DFDFF4"/>
<ellipse cx="79.6349" cy="100.905" rx="6.6593" ry="6.6412" fill="#DFDFF4"/>
<rect x="30.9785" y="73.7422" width="19.992" height="3.2317" rx="1.61585" fill="#BCBCDF"/>
<rect x="90.5635" y="73.7422" width="19.992" height="3.2317" rx="1.61585" fill="#BCBCDF"/>
<rect x="30.9785" y="95.7451" width="19.992" height="3.2317" rx="1.61585" fill="#BCBCDF"/>
<rect x="90.5635" y="95.7451" width="19.992" height="3.2317" rx="1.61585" fill="#BCBCDF"/>
<rect x="30.9785" y="79.9746" width="28.045" height="3.2317" rx="1.61585" fill="#E0E0EF"/>
<rect x="90.5635" y="79.9746" width="28.045" height="3.2317" rx="1.61585" fill="#E0E0EF"/>
<rect x="30.9785" y="101.977" width="28.045" height="3.2317" rx="1.61585" fill="#E0E0EF"/>
<rect x="90.5635" y="101.977" width="28.045" height="3.2317" rx="1.61585" fill="#E0E0EF"/>
<defs>
<filter id="filter0_d" x="32.667" y="199.508" width="66.6668" height="28.4903" filterUnits="userSpaceOnUse" color-interpolation-filters="sRGB">
<feFlood flood-opacity="0" result="BackgroundImageFix"/>
<feColorMatrix in="SourceAlpha" type="matrix" values="0 0 0 0 0 0 0 0 0 0 0 0 0 0 0 0 0 0 127 0"/>
<feOffset dy="3"/>
<feGaussianBlur stdDeviation="3"/>
<feColorMatrix type="matrix" values="0 0 0 0 0.203922 0 0 0 0 0.203922 0 0 0 0 1 0 0 0 0.32 0"/>
<feBlend mode="normal" in2="BackgroundImageFix" result="effect1_dropShadow"/>
<feBlend mode="normal" in="SourceGraphic" in2="effect1_dropShadow" result="shape"/>
</filter>
<filter id="filter1_d" x="5.38965" y="13.2275" width="121.219" height="57.1733" filterUnits="userSpaceOnUse" color-interpolation-filters="sRGB">
<feFlood flood-opacity="0" result="BackgroundImageFix"/>
<feColorMatrix in="SourceAlpha" type="matrix" values="0 0 0 0 0 0 0 0 0 0 0 0 0 0 0 0 0 0 127 0"/>
<feOffset dy="6"/>
<feGaussianBlur stdDeviation="4"/>
<feColorMatrix type="matrix" values="0 0 0 0 0.203922 0 0 0 0 0.203922 0 0 0 0 1 0 0 0 0.1 0"/>
<feBlend mode="normal" in2="BackgroundImageFix" result="effect1_dropShadow"/>
<feBlend mode="normal" in="SourceGraphic" in2="effect1_dropShadow" result="shape"/>
</filter>
</defs>
</svg>
